<svg xmlns="http://www.w3.org/2000/svg" xmlns:xlink="http://www.w3.org/1999/xlink" contentStyleType="text/css" data-diagram-type="CLASS" height="766px" preserveAspectRatio="none" style="width:546px;height:766px;background:#FFFFFF;" version="1.1" viewBox="0 0 546 766" width="546px" zoomAndPan="magnify"><defs/><g><!--class Election--><g class="entity" data-entity="Election" data-source-line="1" data-uid="ent0002" id="entity_Election"><rect fill="#F1F1F1" height="439.125" rx="2.5" ry="2.5" style="stroke:#181818;stroke-width:0.5;" width="266.4541" x="139.88" y="7"/><ellipse cx="240.9254" cy="23" fill="#ADD1B2" rx="11" ry="11" style="stroke:#181818;stroke-width:1;"/><path d="M243.8942,28.6406 Q243.316,28.9375 242.6754,29.0781 Q242.0348,29.2344 241.3317,29.2344 Q238.8317,29.2344 237.5035,27.5938 Q236.191,25.9375 236.191,22.8125 Q236.191,19.6875 237.5035,18.0313 Q238.8317,16.375 241.3317,16.375 Q242.0348,16.375 242.6754,16.5313 Q243.3317,16.6875 243.8942,16.9844 L243.8942,19.7031 Q243.2692,19.125 242.6754,18.8594 Q242.0817,18.5781 241.4567,18.5781 Q240.1129,18.5781 239.4254,19.6563 Q238.7379,20.7188 238.7379,22.8125 Q238.7379,24.9063 239.4254,25.9844 Q240.1129,27.0469 241.4567,27.0469 Q242.0817,27.0469 242.6754,26.7813 Q243.2692,26.5 243.8942,25.9219 L243.8942,28.6406 Z " fill="#000000"/><text fill="#000000" font-family="sans-serif" font-size="14" lengthAdjust="spacing" textLength="55.8633" x="261.4254" y="27.8467">Election</text><line style="stroke:#181818;stroke-width:0.5;" x1="140.88" x2="405.3341" y1="39" y2="39"/><ellipse cx="150.88" cy="52.6484" fill="none" rx="3" ry="3" style="stroke:#038048;stroke-width:1;"/><a href="mapping" target="_top" title="mapping" xlink:actuate="onRequest" xlink:href="mapping" xlink:show="new" xlink:title="mapping" xlink:type="simple"><text fill="#0000FF" font-family="sans-serif" font-size="14" lengthAdjust="spacing" text-decoration="underline" textLength="109.751" x="159.88" y="55.9951">bytes32=&gt;bool</text></a><text fill="#000000" font-family="sans-serif" font-size="14" lengthAdjust="spacing" textLength="121.8027" x="278.5314" y="55.9951">registeredTokens</text><ellipse cx="150.88" cy="68.9453" fill="none" rx="3" ry="3" style="stroke:#038048;stroke-width:1;"/><a href="mapping" target="_top" title="mapping" xlink:actuate="onRequest" xlink:href="mapping" xlink:show="new" xlink:title="mapping" xlink:type="simple"><text fill="#0000FF" font-family="sans-serif" font-size="14" lengthAdjust="spacing" text-decoration="underline" textLength="109.751" x="159.88" y="72.292">bytes32=&gt;bool</text></a><text fill="#000000" font-family="sans-serif" font-size="14" lengthAdjust="spacing" textLength="83.6719" x="278.5314" y="72.292">usedTokens</text><ellipse cx="150.88" cy="85.2422" fill="none" rx="3" ry="3" style="stroke:#038048;stroke-width:1;"/><a href="address" target="_top" title="address" xlink:actuate="onRequest" xlink:href="address" xlink:show="new" xlink:title="address" xlink:type="simple"><text fill="#0000FF" font-family="sans-serif" font-size="14" lengthAdjust="spacing" text-decoration="underline" textLength="55.3096" x="159.88" y="88.5889">address</text></a><text fill="#000000" font-family="sans-serif" font-size="14" lengthAdjust="spacing" textLength="43.8662" x="219.6398" y="88.5889">admin</text><ellipse cx="150.88" cy="101.5391" fill="none" rx="3" ry="3" style="stroke:#038048;stroke-width:1;"/><a href="bool" target="_top" title="bool" xlink:actuate="onRequest" xlink:href="bool" xlink:show="new" xlink:title="bool" xlink:type="simple"><text fill="#0000FF" font-family="sans-serif" font-size="14" lengthAdjust="spacing" text-decoration="underline" textLength="29.9072" x="159.88" y="104.8857">bool</text></a><text fill="#000000" font-family="sans-serif" font-size="14" lengthAdjust="spacing" textLength="81.3818" x="194.2374" y="104.8857">votingOpen</text><ellipse cx="150.88" cy="117.8359" fill="none" rx="3" ry="3" style="stroke:#038048;stroke-width:1;"/><a href="bool" target="_top" title="bool" xlink:actuate="onRequest" xlink:href="bool" xlink:show="new" xlink:title="bool" xlink:type="simple"><text fill="#0000FF" font-family="sans-serif" font-size="14" lengthAdjust="spacing" text-decoration="underline" textLength="29.9072" x="159.88" y="121.1826">bool</text></a><text fill="#000000" font-family="sans-serif" font-size="14" lengthAdjust="spacing" textLength="95.498" x="194.2374" y="121.1826">electionBegin</text><ellipse cx="150.88" cy="134.1328" fill="none" rx="3" ry="3" style="stroke:#038048;stroke-width:1;"/><a href="string" target="_top" title="string" xlink:actuate="onRequest" xlink:href="string" xlink:show="new" xlink:title="string" xlink:type="simple"><text fill="#0000FF" font-family="sans-serif" font-size="14" lengthAdjust="spacing" text-decoration="underline" textLength="40.1885" x="159.88" y="137.4795">string</text></a><text fill="#000000" font-family="sans-serif" font-size="14" lengthAdjust="spacing" textLength="86.0645" x="204.5187" y="137.4795">electionTitle</text><ellipse cx="150.88" cy="150.4297" fill="none" rx="3" ry="3" style="stroke:#038048;stroke-width:1;"/><a href="EncryptedVote" target="_top" title="EncryptedVote" xlink:actuate="onRequest" xlink:href="EncryptedVote" xlink:show="new" xlink:title="EncryptedVote" xlink:type="simple"><text fill="#0000FF" font-family="sans-serif" font-size="14" lengthAdjust="spacing" text-decoration="underline" textLength="103.5781" x="159.88" y="153.7764">EncryptedVote</text></a><text fill="#000000" font-family="sans-serif" font-size="14" lengthAdjust="spacing" textLength="110.6396" x="267.9083" y="153.7764">encryptedVotes</text><ellipse cx="150.88" cy="166.7266" fill="none" rx="3" ry="3" style="stroke:#038048;stroke-width:1;"/><a href="Candidate" target="_top" title="Candidate" xlink:actuate="onRequest" xlink:href="Candidate" xlink:show="new" xlink:title="Candidate" xlink:type="simple"><text fill="#0000FF" font-family="sans-serif" font-size="14" lengthAdjust="spacing" text-decoration="underline" textLength="71.5723" x="159.88" y="170.0732">Candidate</text></a><text fill="#000000" font-family="sans-serif" font-size="14" lengthAdjust="spacing" textLength="76.7881" x="235.9025" y="170.0732">candidates</text><ellipse cx="150.88" cy="183.0234" fill="none" rx="3" ry="3" style="stroke:#038048;stroke-width:1;"/><a href="ElectionResult" target="_top" title="ElectionResult" xlink:actuate="onRequest" xlink:href="ElectionResult" xlink:show="new" xlink:title="ElectionResult" xlink:type="simple"><text fill="#0000FF" font-family="sans-serif" font-size="14" lengthAdjust="spacing" text-decoration="underline" textLength="99.75" x="159.88" y="186.3701">ElectionResult</text></a><text fill="#000000" font-family="sans-serif" font-size="14" lengthAdjust="spacing" textLength="106.8115" x="264.0802" y="186.3701">electionResults</text><ellipse cx="150.88" cy="199.3203" fill="none" rx="3" ry="3" style="stroke:#038048;stroke-width:1;"/><a href="ElectionDistrict" target="_top" title="ElectionDistrict" xlink:actuate="onRequest" xlink:href="ElectionDistrict" xlink:show="new" xlink:title="ElectionDistrict" xlink:type="simple"><text fill="#0000FF" font-family="sans-serif" font-size="14" lengthAdjust="spacing" text-decoration="underline" textLength="106.1484" x="159.88" y="202.667">ElectionDistrict</text></a><text fill="#000000" font-family="sans-serif" font-size="14" lengthAdjust="spacing" textLength="113.21" x="270.4786" y="202.667">electionDistricts</text><line style="stroke:#181818;stroke-width:0.5;" x1="140.88" x2="405.3341" y1="209.9688" y2="209.9688"/><ellipse cx="150.88" cy="223.6172" fill="#84BE84" rx="3" ry="3" style="stroke:#038048;stroke-width:1;"/><text fill="#000000" font-family="sans-serif" font-size="14" font-weight="bold" lengthAdjust="spacing" textLength="119.2939" x="159.88" y="226.9639">__constructor__</text><text fill="#000000" font-family="sans-serif" font-size="14" lengthAdjust="spacing" textLength="10.9238" x="279.1739" y="226.9639">()</text><ellipse cx="150.88" cy="239.9141" fill="#84BE84" rx="3" ry="3" style="stroke:#038048;stroke-width:1;"/><text fill="#000000" font-family="sans-serif" font-size="14" lengthAdjust="spacing" textLength="136.7939" x="159.88" y="243.2607">registerCandidate()</text><ellipse cx="150.88" cy="256.2109" fill="#84BE84" rx="3" ry="3" style="stroke:#038048;stroke-width:1;"/><text fill="#000000" font-family="sans-serif" font-size="14" lengthAdjust="spacing" textLength="121.1807" x="159.88" y="259.5576">&#128269;getCandidates()</text><ellipse cx="150.88" cy="272.5078" fill="#84BE84" rx="3" ry="3" style="stroke:#038048;stroke-width:1;"/><text fill="#000000" font-family="sans-serif" font-size="14" lengthAdjust="spacing" textLength="107.9326" x="159.88" y="275.8545">registerToken()</text><ellipse cx="150.88" cy="288.8047" fill="#84BE84" rx="3" ry="3" style="stroke:#038048;stroke-width:1;"/><text fill="#000000" font-family="sans-serif" font-size="14" lengthAdjust="spacing" textLength="108.042" x="159.88" y="292.1514">&#128269;isTokenValid()</text><ellipse cx="150.88" cy="305.1016" fill="#84BE84" rx="3" ry="3" style="stroke:#038048;stroke-width:1;"/><text fill="#000000" font-family="sans-serif" font-size="14" lengthAdjust="spacing" textLength="124.7559" x="159.88" y="308.4482">markTokenUsed()</text><ellipse cx="150.88" cy="321.3984" fill="#84BE84" rx="3" ry="3" style="stroke:#038048;stroke-width:1;"/><text fill="#000000" font-family="sans-serif" font-size="14" lengthAdjust="spacing" textLength="88.8125" x="159.88" y="324.7451">startVoting()</text><ellipse cx="150.88" cy="337.6953" fill="#84BE84" rx="3" ry="3" style="stroke:#038048;stroke-width:1;"/><text fill="#000000" font-family="sans-serif" font-size="14" lengthAdjust="spacing" textLength="82.5781" x="159.88" y="341.042">endVoting()</text><ellipse cx="150.88" cy="353.9922" fill="#84BE84" rx="3" ry="3" style="stroke:#038048;stroke-width:1;"/><text fill="#000000" font-family="sans-serif" font-size="14" lengthAdjust="spacing" textLength="143.5615" x="159.88" y="357.3389">castEncryptedVote()</text><ellipse cx="150.88" cy="370.2891" fill="#84BE84" rx="3" ry="3" style="stroke:#038048;stroke-width:1;"/><text fill="#000000" font-family="sans-serif" font-size="14" lengthAdjust="spacing" textLength="153.1865" x="159.88" y="373.6357">&#128269;getEncryptedVotes()</text><ellipse cx="150.88" cy="386.5859" fill="#84BE84" rx="3" ry="3" style="stroke:#038048;stroke-width:1;"/><text fill="#000000" font-family="sans-serif" font-size="14" lengthAdjust="spacing" textLength="146.3916" x="159.88" y="389.9326">storeElectionResult()</text><ellipse cx="150.88" cy="402.8828" fill="#84BE84" rx="3" ry="3" style="stroke:#038048;stroke-width:1;"/><text fill="#000000" font-family="sans-serif" font-size="14" lengthAdjust="spacing" textLength="149.3584" x="159.88" y="406.2295">&#128269;getElectionResults()</text><ellipse cx="150.88" cy="419.1797" fill="#84BE84" rx="3" ry="3" style="stroke:#038048;stroke-width:1;"/><text fill="#000000" font-family="sans-serif" font-size="14" lengthAdjust="spacing" textLength="142.7891" x="159.88" y="422.5264">&#128269;getElectionStatus()</text><ellipse cx="150.88" cy="435.4766" fill="#84BE84" rx="3" ry="3" style="stroke:#038048;stroke-width:1;"/><text fill="#000000" font-family="sans-serif" font-size="14" lengthAdjust="spacing" textLength="128.6113" x="159.88" y="438.8232">&#128269;getElectionTitle()</text></g><!--class Candidate--><g class="entity" data-entity="Candidate" data-source-line="32" data-uid="ent0003" id="entity_Candidate"><rect fill="#F1F1F1" height="96.8906" rx="2.5" ry="2.5" style="stroke:#181818;stroke-width:0.5;" width="154.208" x="7" y="514.28"/><ellipse cx="44.7861" cy="530.28" fill="#F1F1F1" rx="11" ry="11" style="stroke:#181818;stroke-width:1;"/><path d="M44.2705,530.8425 Q42.4111,530.1394 41.7548,529.3738 Q41.1142,528.5925 41.1142,527.28 Q41.1142,525.5925 42.1923,524.6238 Q43.2705,523.655 45.1455,523.655 Q46.0048,523.655 46.8486,523.8581 Q47.708,524.0456 48.5517,524.4363 L48.5517,526.8269 Q47.7705,526.2644 46.9423,525.9831 Q46.1298,525.6863 45.333,525.6863 Q44.458,525.6863 43.9736,526.0456 Q43.5048,526.405 43.5048,527.0613 Q43.5048,527.5769 43.8486,527.9206 Q44.1923,528.2488 45.2861,528.655 L46.3486,529.0613 Q47.833,529.6081 48.5361,530.5144 Q49.2548,531.4206 49.2548,532.7956 Q49.2548,534.6706 48.1455,535.5925 Q47.0361,536.5144 44.7861,536.5144 Q43.8642,536.5144 42.9423,536.2956 Q42.0205,536.0769 41.1611,535.655 L41.1611,533.1238 Q42.1298,533.8113 43.0517,534.155 Q43.9736,534.4988 44.8642,534.4988 Q45.7705,534.4988 46.2705,534.0925 Q46.7705,533.6706 46.7705,532.9363 Q46.7705,532.3738 46.4267,531.9675 Q46.0986,531.5456 45.4736,531.2956 L44.2705,530.8425 Z " fill="#000000"/><text fill="#000000" font-family="sans-serif" font-size="14" lengthAdjust="spacing" textLength="71.5723" x="63.8497" y="535.1267">Candidate</text><line style="stroke:#181818;stroke-width:0.5;" x1="8" x2="160.208" y1="546.28" y2="546.28"/><text fill="#000000" font-family="sans-serif" font-size="14" lengthAdjust="spacing" textLength="89.0586" x="13" y="563.2751">name: string</text><text fill="#000000" font-family="sans-serif" font-size="14" lengthAdjust="spacing" textLength="142.208" x="13" y="579.572">electionDistrict: uint</text><text fill="#000000" font-family="sans-serif" font-size="14" lengthAdjust="spacing" textLength="83.4121" x="13" y="595.8689">votes: unint</text><line style="stroke:#181818;stroke-width:0.5;" x1="8" x2="160.208" y1="603.1706" y2="603.1706"/></g><!--class ElectionDistrict--><g class="entity" data-entity="ElectionDistrict" data-source-line="38" data-uid="ent0004" id="entity_ElectionDistrict"><rect fill="#F1F1F1" height="80.5938" rx="2.5" ry="2.5" style="stroke:#181818;stroke-width:0.5;" width="138.1484" x="204.03" y="679.32"/><ellipse cx="219.03" cy="695.32" fill="#F1F1F1" rx="11" ry="11" style="stroke:#181818;stroke-width:1;"/><path d="M218.5144,695.8825 Q216.655,695.1794 215.9988,694.4137 Q215.3581,693.6325 215.3581,692.32 Q215.3581,690.6325 216.4363,689.6637 Q217.5144,688.695 219.3894,688.695 Q220.2488,688.695 221.0925,688.8981 Q221.9519,689.0856 222.7956,689.4762 L222.7956,691.8669 Q222.0144,691.3044 221.1863,691.0231 Q220.3738,690.7262 219.5769,690.7262 Q218.7019,690.7262 218.2175,691.0856 Q217.7488,691.445 217.7488,692.1012 Q217.7488,692.6169 218.0925,692.9606 Q218.4363,693.2887 219.53,693.695 L220.5925,694.1012 Q222.0769,694.6481 222.78,695.5544 Q223.4988,696.4606 223.4988,697.8356 Q223.4988,699.7106 222.3894,700.6325 Q221.28,701.5544 219.03,701.5544 Q218.1081,701.5544 217.1863,701.3356 Q216.2644,701.1169 215.405,700.695 L215.405,698.1637 Q216.3738,698.8512 217.2956,699.195 Q218.2175,699.5387 219.1081,699.5387 Q220.0144,699.5387 220.5144,699.1325 Q221.0144,698.7106 221.0144,697.9762 Q221.0144,697.4137 220.6706,697.0075 Q220.3425,696.5856 219.7175,696.3356 L218.5144,695.8825 Z " fill="#000000"/><text fill="#000000" font-family="sans-serif" font-size="14" lengthAdjust="spacing" textLength="106.1484" x="233.03" y="700.1667">ElectionDistrict</text><line style="stroke:#181818;stroke-width:0.5;" x1="205.03" x2="341.1784" y1="711.32" y2="711.32"/><text fill="#000000" font-family="sans-serif" font-size="14" lengthAdjust="spacing" textLength="89.0586" x="210.03" y="728.3151">name: string</text><text fill="#000000" font-family="sans-serif" font-size="14" lengthAdjust="spacing" textLength="90.9316" x="210.03" y="744.612">number: uint</text><line style="stroke:#181818;stroke-width:0.5;" x1="205.03" x2="341.1784" y1="751.9137" y2="751.9137"/></g><!--class EncryptedVote--><g class="entity" data-entity="EncryptedVote" data-source-line="43" data-uid="ent0005" id="entity_EncryptedVote"><rect fill="#F1F1F1" height="80.5938" rx="2.5" ry="2.5" style="stroke:#181818;stroke-width:0.5;" width="154.208" x="196" y="522.43"/><ellipse cx="219.3834" cy="538.43" fill="#F1F1F1" rx="11" ry="11" style="stroke:#181818;stroke-width:1;"/><path d="M218.8678,538.9925 Q217.0084,538.2894 216.3522,537.5238 Q215.7116,536.7425 215.7116,535.43 Q215.7116,533.7425 216.7897,532.7738 Q217.8678,531.805 219.7428,531.805 Q220.6022,531.805 221.4459,532.0081 Q222.3053,532.1956 223.1491,532.5863 L223.1491,534.9769 Q222.3678,534.4144 221.5397,534.1331 Q220.7272,533.8363 219.9303,533.8363 Q219.0553,533.8363 218.5709,534.1956 Q218.1022,534.555 218.1022,535.2113 Q218.1022,535.7269 218.4459,536.0706 Q218.7897,536.3988 219.8834,536.805 L220.9459,537.2113 Q222.4303,537.7581 223.1334,538.6644 Q223.8522,539.5706 223.8522,540.9456 Q223.8522,542.8206 222.7428,543.7425 Q221.6334,544.6644 219.3834,544.6644 Q218.4616,544.6644 217.5397,544.4456 Q216.6178,544.2269 215.7584,543.805 L215.7584,541.2738 Q216.7272,541.9613 217.6491,542.305 Q218.5709,542.6488 219.4616,542.6488 Q220.3678,542.6488 220.8678,542.2425 Q221.3678,541.8206 221.3678,541.0863 Q221.3678,540.5238 221.0241,540.1175 Q220.6959,539.6956 220.0709,539.4456 L218.8678,538.9925 Z " fill="#000000"/><text fill="#000000" font-family="sans-serif" font-size="14" lengthAdjust="spacing" textLength="103.5781" x="235.2464" y="543.2767">EncryptedVote</text><line style="stroke:#181818;stroke-width:0.5;" x1="197" x2="349.208" y1="554.43" y2="554.43"/><text fill="#000000" font-family="sans-serif" font-size="14" lengthAdjust="spacing" textLength="111.6924" x="202" y="571.4251">vote: Candidate</text><text fill="#000000" font-family="sans-serif" font-size="14" lengthAdjust="spacing" textLength="142.208" x="202" y="587.722">electionDistrict: uint</text><line style="stroke:#181818;stroke-width:0.5;" x1="197" x2="349.208" y1="595.0238" y2="595.0238"/></g><!--class ElectionResult--><g class="entity" data-entity="ElectionResult" data-source-line="48" data-uid="ent0006" id="entity_ElectionResult"><rect fill="#F1F1F1" height="113.1875" rx="2.5" ry="2.5" style="stroke:#181818;stroke-width:0.5;" width="154.208" x="385" y="506.13"/><ellipse cx="410.1061" cy="522.13" fill="#F1F1F1" rx="11" ry="11" style="stroke:#181818;stroke-width:1;"/><path d="M409.5905,522.6925 Q407.7311,521.9894 407.0749,521.2238 Q406.4342,520.4425 406.4342,519.13 Q406.4342,517.4425 407.5124,516.4738 Q408.5905,515.505 410.4655,515.505 Q411.3249,515.505 412.1686,515.7081 Q413.028,515.8956 413.8717,516.2863 L413.8717,518.6769 Q413.0905,518.1144 412.2624,517.8331 Q411.4499,517.5363 410.653,517.5363 Q409.778,517.5363 409.2936,517.8956 Q408.8249,518.255 408.8249,518.9113 Q408.8249,519.4269 409.1686,519.7706 Q409.5124,520.0988 410.6061,520.505 L411.6686,520.9113 Q413.153,521.4581 413.8561,522.3644 Q414.5749,523.2706 414.5749,524.6456 Q414.5749,526.5206 413.4655,527.4425 Q412.3561,528.3644 410.1061,528.3644 Q409.1842,528.3644 408.2624,528.1456 Q407.3405,527.9269 406.4811,527.505 L406.4811,524.9738 Q407.4499,525.6613 408.3717,526.005 Q409.2936,526.3488 410.1842,526.3488 Q411.0905,526.3488 411.5905,525.9425 Q412.0905,525.5206 412.0905,524.7863 Q412.0905,524.2238 411.7467,523.8175 Q411.4186,523.3956 410.7936,523.1456 L409.5905,522.6925 Z " fill="#000000"/><text fill="#000000" font-family="sans-serif" font-size="14" lengthAdjust="spacing" textLength="99.75" x="426.3519" y="526.9767">ElectionResult</text><line style="stroke:#181818;stroke-width:0.5;" x1="386" x2="538.208" y1="538.13" y2="538.13"/><text fill="#000000" font-family="sans-serif" font-size="14" lengthAdjust="spacing" textLength="79.4883" x="391" y="555.1251">tally: string</text><text fill="#000000" font-family="sans-serif" font-size="14" lengthAdjust="spacing" textLength="115.6094" x="391" y="571.422">signature: string</text><text fill="#000000" font-family="sans-serif" font-size="14" lengthAdjust="spacing" textLength="120.6816" x="391" y="587.7189">timestamp: unint</text><text fill="#000000" font-family="sans-serif" font-size="14" lengthAdjust="spacing" textLength="142.208" x="391" y="604.0157">electionDistrict: uint</text><line style="stroke:#181818;stroke-width:0.5;" x1="386" x2="538.208" y1="611.3175" y2="611.3175"/></g><!--reverse link Election to Candidate--><g class="link" data-entity-1="Election" data-entity-2="Candidate" data-source-line="55" data-uid="lnk7" id="link_Election_Candidate"><path codeLine="55" d="M140.5493,461.928 C126.3093,487.108 121.91,494.88 111.11,513.98" fill="none" id="Election-backto-Candidate" style="stroke:#181818;stroke-width:1;"/><polygon fill="none" points="149.41,446.26,135.3266,458.9745,145.772,464.8816,149.41,446.26" style="stroke:#181818;stroke-width:1;"/></g><!--reverse link Election to ElectionResult--><g class="link" data-entity-1="Election" data-entity-2="ElectionResult" data-source-line="56" data-uid="lnk8" id="link_Election_ElectionResult"><path codeLine="56" d="M405.6589,461.9291 C417.9389,483.6491 420.64,488.41 430.52,505.87" fill="none" id="Election-backto-ElectionResult" style="stroke:#181818;stroke-width:1;"/><polygon fill="none" points="396.8,446.26,400.4359,464.882,410.882,458.9761,396.8,446.26" style="stroke:#181818;stroke-width:1;"/></g><!--reverse link Election to EncryptedVote--><g class="link" data-entity-1="Election" data-entity-2="EncryptedVote" data-source-line="57" data-uid="lnk9" id="link_Election_EncryptedVote"><path codeLine="57" d="M273.1,464.26 C273.1,493.14 273.1,501.74 273.1,522.11" fill="none" id="Election-backto-EncryptedVote" style="stroke:#181818;stroke-width:1;"/><polygon fill="none" points="273.1,446.26,267.1,464.26,279.1,464.26,273.1,446.26" style="stroke:#181818;stroke-width:1;"/></g><!--reverse link Candidate to ElectionDistrict--><g class="link" data-entity-1="Candidate" data-entity-2="ElectionDistrict" data-source-line="58" data-uid="lnk10" id="link_Candidate_ElectionDistrict"><path codeLine="58" d="M156.2728,622.8686 C182.6328,644.4686 199.5,658.29 224.58,678.85" fill="none" id="Candidate-backto-ElectionDistrict" style="stroke:#181818;stroke-width:1;"/><polygon fill="none" points="142.35,611.46,152.4699,627.5096,160.0756,618.2277,142.35,611.46" style="stroke:#181818;stroke-width:1;"/></g><!--reverse link ElectionResult to ElectionDistrict--><g class="link" data-entity-1="ElectionResult" data-entity-2="ElectionDistrict" data-source-line="59" data-uid="lnk11" id="link_ElectionResult_ElectionDistrict"><path codeLine="59" d="M379.9483,631.05 C355.9483,650.72 343.41,660.99 321.39,679.04" fill="none" id="ElectionResult-backto-ElectionDistrict" style="stroke:#181818;stroke-width:1;"/><polygon fill="none" points="393.87,619.64,376.145,626.4094,383.7517,635.6905,393.87,619.64" style="stroke:#181818;stroke-width:1;"/></g><!--reverse link EncryptedVote to ElectionDistrict--><g class="link" data-entity-1="EncryptedVote" data-entity-2="ElectionDistrict" data-source-line="60" data-uid="lnk12" id="link_EncryptedVote_ElectionDistrict"><path codeLine="60" d="M273.1,621.21 C273.1,644.42 273.1,655.68 273.1,678.93" fill="none" id="EncryptedVote-backto-ElectionDistrict" style="stroke:#181818;stroke-width:1;"/><polygon fill="none" points="273.1,603.21,267.1,621.21,279.1,621.21,273.1,603.21" style="stroke:#181818;stroke-width:1;"/></g><!--SRC=[VLEnJiCm49t9LtW3Yhh0LW43q1a9IfUggjpuLAmcTkIxLAgWdy36pY_o2LoS9h53Mo_jlVTyz_pif9b45ECCKjBMY8z4y3eNmw7OI8VycvnTpMQvB0fjLcAv9S2RwxlxfRMPcC-5WvL60WTgOjTWyBIwn4WdbNA0o8HKkJOUgwGCR2nnX-S28XJsDXzuQaqWETO5r4HJ1fuQczHj2m8rjGIL8gnh0u_IAAsafzFcVqqrYRm0bXa50se0VKxL2hHFkhAJXke6mYxN7EZTgdsqWy5YaLh3eZ8bwnQBmU3Yal4crzQXHtz_lhzMG2s8aTOds-eq-degCwqyc4ktzj0Rtu97aAIZgK_Qrs1KKAKIASemj10HkEzc7SInHJlY_0vHhoIfFCZuMsLYb_2gmn9j2lxH6fd3IDJFWSj-_YDHQaDCR2g_N9cgtBND-bTugASfyoMuVQTWQnY5trVD67N-ZjlvFxzEntSXcMNRO3pgbU5yN6Y9T0vyYtdHdEZKgFOZl_taPzZPY_7OIPyCpvfqDn3jR2OdlKCT4KNn7TJy0G00]--></g></svg>