<svg xmlns="http://www.w3.org/2000/svg" xmlns:xlink="http://www.w3.org/1999/xlink" contentStyleType="text/css" data-diagram-type="SEQUENCE" height="1541px" preserveAspectRatio="none" style="width:1329px;height:1541px;background:#1B1B1B;" version="1.1" viewBox="0 0 1329 1541" width="1329px" zoomAndPan="magnify"><defs/><g><rect fill="#1B1B1B" height="1541" style="stroke:none;stroke-width:1;" width="1329" x="0" y="0"/><g><title>Frontend</title><rect fill="#000000" height="101.3984" style="stroke:#E7E7E7;stroke-width:1;" width="10" x="119.1084" y="1341.625"/></g><g><title>Frontend</title><rect fill="#000000" height="426.5313" style="stroke:#E7E7E7;stroke-width:1;" width="10" x="330.269" y="708.2969"/></g><g><title>Registrierungsservice.</title><rect fill="#000000" height="240.7344" style="stroke:#E7E7E7;stroke-width:1;" width="10" x="475.7603" y="403.2969"/></g><g><title>Blockchain-Service.</title><rect fill="#000000" height="1351.7266" style="stroke:#E7E7E7;stroke-width:1;" width="10" x="765.8638" y="91.2969"/></g><g><title>Wahlkommission.</title><rect fill="#000000" height="183.4688" style="stroke:#E7E7E7;stroke-width:1;" width="10" x="1084.6841" y="155.5625"/></g><rect fill="none" height="90.2031" style="stroke:#FFFFFF;stroke-width:1.5;" width="483.291" x="685.2207" y="241.8281"/><rect fill="none" height="176.6016" style="stroke:#FFFFFF;stroke-width:1.5;" width="846.5068" x="10" y="460.4297"/><rect fill="none" height="204.7344" style="stroke:#FFFFFF;stroke-width:1.5;" width="774.2529" x="286.7144" y="923.0938"/><g><title>W.hler</title><rect fill="#000000" fill-opacity="0.00000" height="1379.7266" width="8" x="43.7769" y="81.2969"/><line style="stroke:#E7E7E7;stroke-width:0.5;stroke-dasharray:5.0,5.0;" x1="47" x2="47" y1="81.2969" y2="1461.0234"/></g><g><title>Frontend</title><rect fill="#000000" fill-opacity="0.00000" height="1379.7266" width="8" x="120.1084" y="81.2969"/><line style="stroke:#E7E7E7;stroke-width:0.5;stroke-dasharray:5.0,5.0;" x1="123.5537" x2="123.5537" y1="81.2969" y2="1461.0234"/></g><g><title>Frontend</title><rect fill="#000000" fill-opacity="0.00000" height="1379.7266" width="8" x="331.269" y="81.2969"/><line style="stroke:#E7E7E7;stroke-width:0.5;stroke-dasharray:5.0,5.0;" x1="334.7144" x2="334.7144" y1="81.2969" y2="1461.0234"/></g><g><title>Registrierungsservice.</title><rect fill="#000000" fill-opacity="0.00000" height="1379.7266" width="8" x="476.7603" y="81.2969"/><line style="stroke:#E7E7E7;stroke-width:0.5;stroke-dasharray:5.0,5.0;" x1="480.4067" x2="480.4067" y1="81.2969" y2="1461.0234"/></g><g><title>Blockchain-Service.</title><rect fill="#000000" fill-opacity="0.00000" height="1379.7266" width="8" x="766.8638" y="81.2969"/><line style="stroke:#E7E7E7;stroke-width:0.5;stroke-dasharray:5.0,5.0;" x1="770.2207" x2="770.2207" y1="81.2969" y2="1461.0234"/></g><g><title>Wahlkommission.</title><rect fill="#000000" fill-opacity="0.00000" height="1379.7266" width="8" x="1085.6841" y="81.2969"/><line style="stroke:#E7E7E7;stroke-width:0.5;stroke-dasharray:5.0,5.0;" x1="1088.8564" x2="1088.8564" y1="81.2969" y2="1461.0234"/></g><g><title>Partei</title><rect fill="#000000" fill-opacity="0.00000" height="1379.7266" width="8" x="1289.8799" y="81.2969"/><line style="stroke:#E7E7E7;stroke-width:0.5;stroke-dasharray:5.0,5.0;" x1="1293.4951" x2="1293.4951" y1="81.2969" y2="1461.0234"/></g><g class="participant participant-head" data-participant="W.hler"><text fill="#FFFFFF" font-family="sans-serif" font-size="14" lengthAdjust="spacing" textLength="49.5537" x="20" y="77.9951">W&#228;hler</text><ellipse cx="47.7769" cy="13.5" fill="#222222" rx="8" ry="8" style="stroke:#E7E7E7;stroke-width:0.5;"/><path d="M47.7769,21.5 L47.7769,48.5 M34.7769,29.5 L60.7769,29.5 M47.7769,48.5 L34.7769,63.5 M47.7769,48.5 L60.7769,63.5" fill="none" style="stroke:#E7E7E7;stroke-width:0.5;"/></g><g class="participant participant-tail" data-participant="W.hler"><text fill="#FFFFFF" font-family="sans-serif" font-size="14" lengthAdjust="spacing" textLength="49.5537" x="20" y="1473.0186">W&#228;hler</text><ellipse cx="47.7769" cy="1484.8203" fill="#222222" rx="8" ry="8" style="stroke:#E7E7E7;stroke-width:0.5;"/><path d="M47.7769,1492.8203 L47.7769,1519.8203 M34.7769,1500.8203 L60.7769,1500.8203 M47.7769,1519.8203 L34.7769,1534.8203 M47.7769,1519.8203 L60.7769,1534.8203" fill="none" style="stroke:#E7E7E7;stroke-width:0.5;"/></g><g class="participant participant-head" data-participant="FER"><rect fill="#222222" height="46.5938" rx="2.5" ry="2.5" style="stroke:#E7E7E7;stroke-width:0.5;" width="77.1094" x="85.5537" y="33.7031"/><text fill="#FFFFFF" font-family="sans-serif" font-size="14" lengthAdjust="spacing" textLength="63.1094" x="92.5537" y="53.6982">Frontend</text><text fill="#FFFFFF" font-family="sans-serif" font-size="14" lengthAdjust="spacing" textLength="51.1807" x="98.5181" y="69.9951">Results</text></g><g class="participant participant-tail" data-participant="FER"><rect fill="#222222" height="46.5938" rx="2.5" ry="2.5" style="stroke:#E7E7E7;stroke-width:0.5;" width="77.1094" x="85.5537" y="1460.0234"/><text fill="#FFFFFF" font-family="sans-serif" font-size="14" lengthAdjust="spacing" textLength="63.1094" x="92.5537" y="1480.0186">Frontend</text><text fill="#FFFFFF" font-family="sans-serif" font-size="14" lengthAdjust="spacing" textLength="51.1807" x="98.5181" y="1496.3154">Results</text></g><g class="participant participant-head" data-participant="FEV"><rect fill="#222222" height="46.5938" rx="2.5" ry="2.5" style="stroke:#E7E7E7;stroke-width:0.5;" width="77.1094" x="296.7144" y="33.7031"/><text fill="#FFFFFF" font-family="sans-serif" font-size="14" lengthAdjust="spacing" textLength="63.1094" x="303.7144" y="53.6982">Frontend</text><text fill="#FFFFFF" font-family="sans-serif" font-size="14" lengthAdjust="spacing" textLength="45.2813" x="312.6284" y="69.9951">Voting</text></g><g class="participant participant-tail" data-participant="FEV"><rect fill="#222222" height="46.5938" rx="2.5" ry="2.5" style="stroke:#E7E7E7;stroke-width:0.5;" width="77.1094" x="296.7144" y="1460.0234"/><text fill="#FFFFFF" font-family="sans-serif" font-size="14" lengthAdjust="spacing" textLength="63.1094" x="303.7144" y="1480.0186">Frontend</text><text fill="#FFFFFF" font-family="sans-serif" font-size="14" lengthAdjust="spacing" textLength="45.2813" x="312.6284" y="1496.3154">Voting</text></g><g class="participant participant-head" data-participant="RS"><rect fill="#222222" height="46.5938" rx="2.5" ry="2.5" style="stroke:#E7E7E7;stroke-width:0.5;" width="170.707" x="395.4067" y="33.7031"/><text fill="#FFFFFF" font-family="sans-serif" font-size="14" lengthAdjust="spacing" textLength="156.707" x="402.4067" y="53.6982">Registrierungsservice/</text><text fill="#FFFFFF" font-family="sans-serif" font-size="14" lengthAdjust="spacing" textLength="89.7559" x="435.8823" y="69.9951">Wahlamt/API</text></g><g class="participant participant-tail" data-participant="RS"><rect fill="#222222" height="46.5938" rx="2.5" ry="2.5" style="stroke:#E7E7E7;stroke-width:0.5;" width="170.707" x="395.4067" y="1460.0234"/><text fill="#FFFFFF" font-family="sans-serif" font-size="14" lengthAdjust="spacing" textLength="156.707" x="402.4067" y="1480.0186">Registrierungsservice/</text><text fill="#FFFFFF" font-family="sans-serif" font-size="14" lengthAdjust="spacing" textLength="89.7559" x="435.8823" y="1496.3154">Wahlamt/API</text></g><g class="participant participant-head" data-participant="BC"><rect fill="#222222" height="46.5938" rx="2.5" ry="2.5" style="stroke:#E7E7E7;stroke-width:0.5;" width="151.2861" x="695.2207" y="33.7031"/><text fill="#FFFFFF" font-family="sans-serif" font-size="14" lengthAdjust="spacing" textLength="137.2861" x="702.2207" y="53.6982">Blockchain-Service/</text><text fill="#FFFFFF" font-family="sans-serif" font-size="14" lengthAdjust="spacing" textLength="102.5732" x="719.5771" y="69.9951">SmartContract</text></g><g class="participant participant-tail" data-participant="BC"><rect fill="#222222" height="46.5938" rx="2.5" ry="2.5" style="stroke:#E7E7E7;stroke-width:0.5;" width="151.2861" x="695.2207" y="1460.0234"/><text fill="#FFFFFF" font-family="sans-serif" font-size="14" lengthAdjust="spacing" textLength="137.2861" x="702.2207" y="1480.0186">Blockchain-Service/</text><text fill="#FFFFFF" font-family="sans-serif" font-size="14" lengthAdjust="spacing" textLength="102.5732" x="719.5771" y="1496.3154">SmartContract</text></g><g class="participant participant-head" data-participant="API"><rect fill="#222222" height="46.5938" rx="2.5" ry="2.5" style="stroke:#E7E7E7;stroke-width:0.5;" width="137.6553" x="1020.8564" y="33.7031"/><text fill="#FFFFFF" font-family="sans-serif" font-size="14" lengthAdjust="spacing" textLength="123.6553" x="1027.8564" y="53.6982">Wahlkommission/</text><text fill="#FFFFFF" font-family="sans-serif" font-size="14" lengthAdjust="spacing" textLength="22.1484" x="1078.6099" y="69.9951">API</text></g><g class="participant participant-tail" data-participant="API"><rect fill="#222222" height="46.5938" rx="2.5" ry="2.5" style="stroke:#E7E7E7;stroke-width:0.5;" width="137.6553" x="1020.8564" y="1460.0234"/><text fill="#FFFFFF" font-family="sans-serif" font-size="14" lengthAdjust="spacing" textLength="123.6553" x="1027.8564" y="1480.0186">Wahlkommission/</text><text fill="#FFFFFF" font-family="sans-serif" font-size="14" lengthAdjust="spacing" textLength="22.1484" x="1078.6099" y="1496.3154">API</text></g><g class="participant participant-head" data-participant="Partei"><text fill="#FFFFFF" font-family="sans-serif" font-size="14" lengthAdjust="spacing" textLength="40.7695" x="1270.4951" y="77.9951">Partei</text><ellipse cx="1293.8799" cy="13.5" fill="#222222" rx="8" ry="8" style="stroke:#E7E7E7;stroke-width:0.5;"/><path d="M1293.8799,21.5 L1293.8799,48.5 M1280.8799,29.5 L1306.8799,29.5 M1293.8799,48.5 L1280.8799,63.5 M1293.8799,48.5 L1306.8799,63.5" fill="none" style="stroke:#E7E7E7;stroke-width:0.5;"/></g><g class="participant participant-tail" data-participant="Partei"><text fill="#FFFFFF" font-family="sans-serif" font-size="14" lengthAdjust="spacing" textLength="40.7695" x="1270.4951" y="1473.0186">Partei</text><ellipse cx="1293.8799" cy="1484.8203" fill="#222222" rx="8" ry="8" style="stroke:#E7E7E7;stroke-width:0.5;"/><path d="M1293.8799,1492.8203 L1293.8799,1519.8203 M1280.8799,1500.8203 L1306.8799,1500.8203 M1293.8799,1519.8203 L1280.8799,1534.8203 M1293.8799,1519.8203 L1306.8799,1534.8203" fill="none" style="stroke:#E7E7E7;stroke-width:0.5;"/></g><g><title>Frontend</title><rect fill="#000000" height="101.3984" style="stroke:#E7E7E7;stroke-width:1;" width="10" x="119.1084" y="1341.625"/></g><g><title>Frontend</title><rect fill="#000000" height="426.5313" style="stroke:#E7E7E7;stroke-width:1;" width="10" x="330.269" y="708.2969"/></g><g><title>Registrierungsservice.</title><rect fill="#000000" height="240.7344" style="stroke:#E7E7E7;stroke-width:1;" width="10" x="475.7603" y="403.2969"/></g><g><title>Blockchain-Service.</title><rect fill="#000000" height="1351.7266" style="stroke:#E7E7E7;stroke-width:1;" width="10" x="765.8638" y="91.2969"/></g><g><title>Wahlkommission.</title><rect fill="#000000" height="183.4688" style="stroke:#E7E7E7;stroke-width:1;" width="10" x="1084.6841" y="155.5625"/></g><rect fill="#111111" height="3" style="stroke:#111111;stroke-width:1;" width="1322.2646" x="0" y="111.8633"/><line style="stroke:#FFFFFF;stroke-width:1;" x1="0" x2="1322.2646" y1="111.8633" y2="111.8633"/><line style="stroke:#FFFFFF;stroke-width:1;" x1="0" x2="1322.2646" y1="114.8633" y2="114.8633"/><rect fill="#111111" height="23.1328" style="stroke:#FFFFFF;stroke-width:2;" width="207.7305" x="557.2671" y="101.2969"/><text fill="#FFFFFF" font-family="sans-serif" font-size="13" font-weight="bold" lengthAdjust="spacing" textLength="189.2046" x="563.2671" y="117.3638">Registrierung Kandidaten</text><g class="message" data-participant-1="Partei" data-participant-2="API"><polygon fill="#E7E7E7" points="1105.6841,151.5625,1095.6841,155.5625,1105.6841,159.5625,1101.6841,155.5625" style="stroke:#E7E7E7;stroke-width:1;"/><line style="stroke:#E7E7E7;stroke-width:1;" x1="1099.6841" x2="1292.8799" y1="155.5625" y2="155.5625"/><text fill="#FFFFFF" font-family="sans-serif" font-size="13" font-weight="bold" lengthAdjust="spacing" textLength="18.0908" x="1111.6841" y="150.4966">10</text><text fill="#FFFFFF" font-family="sans-serif" font-size="13" lengthAdjust="spacing" textLength="119.52" x="1133.7749" y="150.4966">Gibt Wahllisten ab</text></g><g class="message" data-participant-1="API" data-participant-2="API"><line style="stroke:#E7E7E7;stroke-width:1;" x1="1094.6841" x2="1136.6841" y1="184.6953" y2="184.6953"/><line style="stroke:#E7E7E7;stroke-width:1;" x1="1136.6841" x2="1136.6841" y1="184.6953" y2="197.6953"/><line style="stroke:#E7E7E7;stroke-width:1;" x1="1095.6841" x2="1136.6841" y1="197.6953" y2="197.6953"/><polygon fill="#E7E7E7" points="1105.6841,193.6953,1095.6841,197.6953,1105.6841,201.6953,1101.6841,197.6953" style="stroke:#E7E7E7;stroke-width:1;"/><text fill="#FFFFFF" font-family="sans-serif" font-size="13" font-weight="bold" lengthAdjust="spacing" textLength="18.0908" x="1101.6841" y="179.6294">11</text><text fill="#FFFFFF" font-family="sans-serif" font-size="13" lengthAdjust="spacing" textLength="103.2319" x="1123.7749" y="179.6294">Pr&#252;ft Wahllisten</text></g><g class="message" data-participant-1="API" data-participant-2="BC"><polygon fill="#E7E7E7" points="786.8638,222.8281,776.8638,226.8281,786.8638,230.8281,782.8638,226.8281" style="stroke:#E7E7E7;stroke-width:1;"/><line style="stroke:#E7E7E7;stroke-width:1;" x1="780.8638" x2="1083.6841" y1="226.8281" y2="226.8281"/><text fill="#FFFFFF" font-family="sans-serif" font-size="13" font-weight="bold" lengthAdjust="spacing" textLength="18.0908" x="792.8638" y="221.7622">12</text><text fill="#FFFFFF" font-family="sans-serif" font-size="13" lengthAdjust="spacing" textLength="146.4404" x="814.9546" y="221.7622">Registriert Kandidaten</text></g><path d="M685.2207,241.8281 L749.6636,241.8281 L749.6636,248.9609 L739.6636,258.9609 L685.2207,258.9609 L685.2207,241.8281" fill="#555555" style="stroke:#FFFFFF;stroke-width:1.5;"/><rect fill="none" height="90.2031" style="stroke:#FFFFFF;stroke-width:1.5;" width="483.291" x="685.2207" y="241.8281"/><text fill="#FFFFFF" font-family="sans-serif" font-size="13" font-weight="bold" lengthAdjust="spacing" textLength="19.4429" x="700.2207" y="254.895">alt</text><text fill="#FFFFFF" font-family="sans-serif" font-size="11" font-weight="bold" lengthAdjust="spacing" textLength="106.2402" x="764.6636" y="254.0386">[Kandidat g&#252;ltig]</text><g class="message" data-participant-1="BC" data-participant-2="API"><polygon fill="#E7E7E7" points="1072.6841,276.0938,1082.6841,280.0938,1072.6841,284.0938,1076.6841,280.0938" style="stroke:#E7E7E7;stroke-width:1;"/><line style="stroke:#E7E7E7;stroke-width:1;stroke-dasharray:2.0,2.0;" x1="775.8638" x2="1078.6841" y1="280.0938" y2="280.0938"/><text fill="#FFFFFF" font-family="sans-serif" font-size="13" font-weight="bold" lengthAdjust="spacing" textLength="18.0908" x="782.8638" y="275.0278">13</text><text fill="#FFFFFF" font-family="sans-serif" font-size="13" lengthAdjust="spacing" textLength="52.3301" x="804.9546" y="275.0278">Success</text></g><line style="stroke:#FFFFFF;stroke-width:1;stroke-dasharray:2.0,2.0;" x1="685.2207" x2="1168.5117" y1="289.0938" y2="289.0938"/><text fill="#FFFFFF" font-family="sans-serif" font-size="11" font-weight="bold" lengthAdjust="spacing" textLength="141.2813" x="690.2207" y="299.3042">[Kandidat nicht g&#252;ltig]</text><g class="message" data-participant-1="BC" data-participant-2="API"><polygon fill="#E7E7E7" points="1072.6841,320.0313,1082.6841,324.0313,1072.6841,328.0313,1076.6841,324.0313" style="stroke:#E7E7E7;stroke-width:1;"/><line style="stroke:#E7E7E7;stroke-width:1;stroke-dasharray:2.0,2.0;" x1="775.8638" x2="1078.6841" y1="324.0313" y2="324.0313"/><text fill="#FFFFFF" font-family="sans-serif" font-size="13" font-weight="bold" lengthAdjust="spacing" textLength="18.0908" x="782.8638" y="318.9653">14</text><text fill="#FFFFFF" font-family="sans-serif" font-size="13" lengthAdjust="spacing" textLength="40.6694" x="804.9546" y="318.9653">Fehler</text></g><rect fill="#111111" height="3" style="stroke:#111111;stroke-width:1;" width="1322.2646" x="0" y="359.5977"/><line style="stroke:#FFFFFF;stroke-width:1;" x1="0" x2="1322.2646" y1="359.5977" y2="359.5977"/><line style="stroke:#FFFFFF;stroke-width:1;" x1="0" x2="1322.2646" y1="362.5977" y2="362.5977"/><rect fill="#111111" height="23.1328" style="stroke:#FFFFFF;stroke-width:2;" width="175.5542" x="573.3552" y="349.0313"/><text fill="#FFFFFF" font-family="sans-serif" font-size="13" font-weight="bold" lengthAdjust="spacing" textLength="157.0283" x="579.3552" y="365.0981">Registrierung W&#228;hler</text><g class="message" data-participant-1="W.hler" data-participant-2="RS"><polygon fill="#E7E7E7" points="463.7603,399.2969,473.7603,403.2969,463.7603,407.2969,467.7603,403.2969" style="stroke:#E7E7E7;stroke-width:1;"/><line style="stroke:#E7E7E7;stroke-width:1;" x1="47.7769" x2="469.7603" y1="403.2969" y2="403.2969"/><text fill="#FFFFFF" font-family="sans-serif" font-size="13" font-weight="bold" lengthAdjust="spacing" textLength="18.0908" x="54.7769" y="398.231">20</text><text fill="#FFFFFF" font-family="sans-serif" font-size="13" lengthAdjust="spacing" textLength="159.6372" x="76.8677" y="398.231">Authentifiziere (z.B. eID)</text></g><g class="message" data-participant-1="RS" data-participant-2="RS"><line style="stroke:#E7E7E7;stroke-width:1;" x1="485.7603" x2="527.7603" y1="432.4297" y2="432.4297"/><line style="stroke:#E7E7E7;stroke-width:1;" x1="527.7603" x2="527.7603" y1="432.4297" y2="445.4297"/><line style="stroke:#E7E7E7;stroke-width:1;" x1="486.7603" x2="527.7603" y1="445.4297" y2="445.4297"/><polygon fill="#E7E7E7" points="496.7603,441.4297,486.7603,445.4297,496.7603,449.4297,492.7603,445.4297" style="stroke:#E7E7E7;stroke-width:1;"/><text fill="#FFFFFF" font-family="sans-serif" font-size="13" font-weight="bold" lengthAdjust="spacing" textLength="18.0908" x="492.7603" y="427.3638">21</text><text fill="#FFFFFF" font-family="sans-serif" font-size="13" lengthAdjust="spacing" textLength="157.4727" x="514.8511" y="427.3638">Pr&#252;fe Wahlberechtigung</text></g><path d="M10,460.4297 L74.4429,460.4297 L74.4429,467.5625 L64.4429,477.5625 L10,477.5625 L10,460.4297" fill="#555555" style="stroke:#FFFFFF;stroke-width:1.5;"/><rect fill="none" height="176.6016" style="stroke:#FFFFFF;stroke-width:1.5;" width="846.5068" x="10" y="460.4297"/><text fill="#FFFFFF" font-family="sans-serif" font-size="13" font-weight="bold" lengthAdjust="spacing" textLength="19.4429" x="25" y="473.4966">alt</text><text fill="#FFFFFF" font-family="sans-serif" font-size="11" font-weight="bold" lengthAdjust="spacing" textLength="164.4307" x="89.4429" y="472.6401">[Wahlberechtigung g&#252;ltig]</text><g class="message" data-participant-1="RS" data-participant-2="RS"><line style="stroke:#E7E7E7;stroke-width:1;" x1="485.7603" x2="527.7603" y1="498.6953" y2="498.6953"/><line style="stroke:#E7E7E7;stroke-width:1;" x1="527.7603" x2="527.7603" y1="498.6953" y2="511.6953"/><line style="stroke:#E7E7E7;stroke-width:1;" x1="486.7603" x2="527.7603" y1="511.6953" y2="511.6953"/><polygon fill="#E7E7E7" points="496.7603,507.6953,486.7603,511.6953,496.7603,515.6953,492.7603,511.6953" style="stroke:#E7E7E7;stroke-width:1;"/><text fill="#FFFFFF" font-family="sans-serif" font-size="13" font-weight="bold" lengthAdjust="spacing" textLength="18.0908" x="492.7603" y="493.6294">22</text><text fill="#FFFFFF" font-family="sans-serif" font-size="13" lengthAdjust="spacing" textLength="108.3989" x="514.8511" y="493.6294">Generiere Token</text></g><g class="message" data-participant-1="RS" data-participant-2="W.hler"><polygon fill="#E7E7E7" points="58.7769,536.8281,48.7769,540.8281,58.7769,544.8281,54.7769,540.8281" style="stroke:#E7E7E7;stroke-width:1;"/><line style="stroke:#E7E7E7;stroke-width:1;stroke-dasharray:2.0,2.0;" x1="52.7769" x2="474.7603" y1="540.8281" y2="540.8281"/><text fill="#FFFFFF" font-family="sans-serif" font-size="13" font-weight="bold" lengthAdjust="spacing" textLength="18.0908" x="64.7769" y="535.7622">23</text><text fill="#FFFFFF" font-family="sans-serif" font-size="13" lengthAdjust="spacing" textLength="212.6338" x="86.8677" y="535.7622">&#220;bermittle Token (z.B. QR-Code)</text></g><g class="message" data-participant-1="RS" data-participant-2="BC"><polygon fill="#E7E7E7" points="753.8638,581.0938,763.8638,585.0938,753.8638,589.0938,757.8638,585.0938" style="stroke:#E7E7E7;stroke-width:1;"/><line style="stroke:#E7E7E7;stroke-width:1;" x1="485.7603" x2="759.8638" y1="585.0938" y2="585.0938"/><text fill="#FFFFFF" font-family="sans-serif" font-size="13" font-weight="bold" lengthAdjust="spacing" textLength="18.0908" x="492.7603" y="572.4614">24</text><text fill="#FFFFFF" font-family="sans-serif" font-size="13" lengthAdjust="spacing" textLength="234.0127" x="514.8511" y="564.895">Schreibe Hash(Token) in Blockchain</text><text fill="#FFFFFF" font-family="sans-serif" font-size="13" lengthAdjust="spacing" textLength="139.5469" x="514.8511" y="580.0278">(Typ: REGISTRATION)</text></g><line style="stroke:#FFFFFF;stroke-width:1;stroke-dasharray:2.0,2.0;" x1="10" x2="856.5068" y1="594.0938" y2="594.0938"/><text fill="#FFFFFF" font-family="sans-serif" font-size="11" font-weight="bold" lengthAdjust="spacing" textLength="199.4717" x="15" y="604.3042">[Wahlberechtigung nicht g&#252;ltig]</text><g class="message" data-participant-1="RS" data-participant-2="W.hler"><polygon fill="#E7E7E7" points="58.7769,625.0313,48.7769,629.0313,58.7769,633.0313,54.7769,629.0313" style="stroke:#E7E7E7;stroke-width:1;"/><line style="stroke:#E7E7E7;stroke-width:1;stroke-dasharray:2.0,2.0;" x1="52.7769" x2="474.7603" y1="629.0313" y2="629.0313"/><text fill="#FFFFFF" font-family="sans-serif" font-size="13" font-weight="bold" lengthAdjust="spacing" textLength="18.0908" x="64.7769" y="623.9653">25</text><text fill="#FFFFFF" font-family="sans-serif" font-size="13" lengthAdjust="spacing" textLength="40.6694" x="86.8677" y="623.9653">Fehler</text></g><rect fill="#111111" height="3" style="stroke:#111111;stroke-width:1;" width="1322.2646" x="0" y="664.5977"/><line style="stroke:#FFFFFF;stroke-width:1;" x1="0" x2="1322.2646" y1="664.5977" y2="664.5977"/><line style="stroke:#FFFFFF;stroke-width:1;" x1="0" x2="1322.2646" y1="667.5977" y2="667.5977"/><rect fill="#111111" height="23.1328" style="stroke:#FFFFFF;stroke-width:2;" width="119.9297" x="601.1675" y="654.0313"/><text fill="#FFFFFF" font-family="sans-serif" font-size="13" font-weight="bold" lengthAdjust="spacing" textLength="101.4038" x="607.1675" y="670.0981">Stimmabgabe</text><g class="message" data-participant-1="W.hler" data-participant-2="FEV"><polygon fill="#E7E7E7" points="318.269,704.2969,328.269,708.2969,318.269,712.2969,322.269,708.2969" style="stroke:#E7E7E7;stroke-width:1;"/><line style="stroke:#E7E7E7;stroke-width:1;" x1="47.7769" x2="324.269" y1="708.2969" y2="708.2969"/><text fill="#FFFFFF" font-family="sans-serif" font-size="13" font-weight="bold" lengthAdjust="spacing" textLength="18.0908" x="54.7769" y="703.231">30</text><text fill="#FFFFFF" font-family="sans-serif" font-size="13" lengthAdjust="spacing" textLength="241.4014" x="76.8677" y="703.231">&#214;ffne Wahlclient und gebe Token ein</text></g><g class="message" data-participant-1="W.hler" data-participant-2="FEV"><polygon fill="#E7E7E7" points="318.269,733.4297,328.269,737.4297,318.269,741.4297,322.269,737.4297" style="stroke:#E7E7E7;stroke-width:1;"/><line style="stroke:#E7E7E7;stroke-width:1;" x1="47.7769" x2="324.269" y1="737.4297" y2="737.4297"/><text fill="#FFFFFF" font-family="sans-serif" font-size="13" font-weight="bold" lengthAdjust="spacing" textLength="18.0908" x="54.7769" y="732.3638">31</text><text fill="#FFFFFF" font-family="sans-serif" font-size="13" lengthAdjust="spacing" textLength="109.0908" x="76.8677" y="732.3638">Gebe Stimme ab</text></g><g class="message" data-participant-1="FEV" data-participant-2="FEV"><line style="stroke:#E7E7E7;stroke-width:1;" x1="340.269" x2="382.269" y1="781.6953" y2="781.6953"/><line style="stroke:#E7E7E7;stroke-width:1;" x1="382.269" x2="382.269" y1="781.6953" y2="794.6953"/><line style="stroke:#E7E7E7;stroke-width:1;" x1="341.269" x2="382.269" y1="794.6953" y2="794.6953"/><polygon fill="#E7E7E7" points="351.269,790.6953,341.269,794.6953,351.269,798.6953,347.269,794.6953" style="stroke:#E7E7E7;stroke-width:1;"/><text fill="#FFFFFF" font-family="sans-serif" font-size="13" font-weight="bold" lengthAdjust="spacing" textLength="18.0908" x="347.269" y="769.063">32</text><text fill="#FFFFFF" font-family="sans-serif" font-size="13" lengthAdjust="spacing" textLength="89.4004" x="369.3599" y="761.4966">Verschl&#252;ssele</text><text fill="#FFFFFF" font-family="sans-serif" font-size="13" lengthAdjust="spacing" textLength="85.0903" x="373.4922" y="776.6294">Stimme lokal</text></g><g class="message" data-participant-1="FEV" data-participant-2="BC"><polygon fill="#E7E7E7" points="753.8638,819.8281,763.8638,823.8281,753.8638,827.8281,757.8638,823.8281" style="stroke:#E7E7E7;stroke-width:1;"/><line style="stroke:#E7E7E7;stroke-width:1;" x1="340.269" x2="759.8638" y1="823.8281" y2="823.8281"/><text fill="#FFFFFF" font-family="sans-serif" font-size="13" font-weight="bold" lengthAdjust="spacing" textLength="18.0908" x="347.269" y="818.7622">33</text><text fill="#FFFFFF" font-family="sans-serif" font-size="13" lengthAdjust="spacing" textLength="251.4053" x="369.3599" y="818.7622">Sende Token + verschl&#252;sselte Stimme</text></g><g class="message" data-participant-1="BC" data-participant-2="BC"><line style="stroke:#E7E7E7;stroke-width:1;" x1="775.8638" x2="817.8638" y1="852.9609" y2="852.9609"/><line style="stroke:#E7E7E7;stroke-width:1;" x1="817.8638" x2="817.8638" y1="852.9609" y2="865.9609"/><line style="stroke:#E7E7E7;stroke-width:1;" x1="776.8638" x2="817.8638" y1="865.9609" y2="865.9609"/><polygon fill="#E7E7E7" points="786.8638,861.9609,776.8638,865.9609,786.8638,869.9609,782.8638,865.9609" style="stroke:#E7E7E7;stroke-width:1;"/><text fill="#FFFFFF" font-family="sans-serif" font-size="13" font-weight="bold" lengthAdjust="spacing" textLength="18.0908" x="782.8638" y="847.895">34</text><text fill="#FFFFFF" font-family="sans-serif" font-size="13" lengthAdjust="spacing" textLength="227.9253" x="804.9546" y="847.895">Pr&#252;fe, ob Token-Hash registriert ist</text></g><g class="message" data-participant-1="BC" data-participant-2="BC"><line style="stroke:#E7E7E7;stroke-width:1;" x1="775.8638" x2="817.8638" y1="895.0938" y2="895.0938"/><line style="stroke:#E7E7E7;stroke-width:1;" x1="817.8638" x2="817.8638" y1="895.0938" y2="908.0938"/><line style="stroke:#E7E7E7;stroke-width:1;" x1="776.8638" x2="817.8638" y1="908.0938" y2="908.0938"/><polygon fill="#E7E7E7" points="786.8638,904.0938,776.8638,908.0938,786.8638,912.0938,782.8638,908.0938" style="stroke:#E7E7E7;stroke-width:1;"/><text fill="#FFFFFF" font-family="sans-serif" font-size="13" font-weight="bold" lengthAdjust="spacing" textLength="18.0908" x="782.8638" y="890.0278">35</text><text fill="#FFFFFF" font-family="sans-serif" font-size="13" lengthAdjust="spacing" textLength="262.7295" x="804.9546" y="890.0278">Pr&#252;fe, ob Token schon verwendet wurde</text></g><path d="M286.7144,923.0938 L351.1572,923.0938 L351.1572,930.2266 L341.1572,940.2266 L286.7144,940.2266 L286.7144,923.0938" fill="#555555" style="stroke:#FFFFFF;stroke-width:1.5;"/><rect fill="none" height="204.7344" style="stroke:#FFFFFF;stroke-width:1.5;" width="774.2529" x="286.7144" y="923.0938"/><text fill="#FFFFFF" font-family="sans-serif" font-size="13" font-weight="bold" lengthAdjust="spacing" textLength="19.4429" x="301.7144" y="936.1606">alt</text><text fill="#FFFFFF" font-family="sans-serif" font-size="11" font-weight="bold" lengthAdjust="spacing" textLength="206.3252" x="366.1572" y="935.3042">[Token g&#252;ltig &amp; nicht verwendet]</text><g class="message" data-participant-1="BC" data-participant-2="BC"><line style="stroke:#E7E7E7;stroke-width:1;" x1="775.8638" x2="817.8638" y1="961.3594" y2="961.3594"/><line style="stroke:#E7E7E7;stroke-width:1;" x1="817.8638" x2="817.8638" y1="961.3594" y2="974.3594"/><line style="stroke:#E7E7E7;stroke-width:1;" x1="776.8638" x2="817.8638" y1="974.3594" y2="974.3594"/><polygon fill="#E7E7E7" points="786.8638,970.3594,776.8638,974.3594,786.8638,978.3594,782.8638,974.3594" style="stroke:#E7E7E7;stroke-width:1;"/><text fill="#FFFFFF" font-family="sans-serif" font-size="13" font-weight="bold" lengthAdjust="spacing" textLength="18.0908" x="782.8638" y="956.2935">36</text><text fill="#FFFFFF" font-family="sans-serif" font-size="13" lengthAdjust="spacing" textLength="119.2598" x="804.9546" y="956.2935">Speichere Stimme</text></g><g class="message" data-participant-1="BC" data-participant-2="BC"><line style="stroke:#E7E7E7;stroke-width:1;" x1="775.8638" x2="817.8638" y1="1018.625" y2="1018.625"/><line style="stroke:#E7E7E7;stroke-width:1;" x1="817.8638" x2="817.8638" y1="1018.625" y2="1031.625"/><line style="stroke:#E7E7E7;stroke-width:1;" x1="776.8638" x2="817.8638" y1="1031.625" y2="1031.625"/><polygon fill="#E7E7E7" points="786.8638,1027.625,776.8638,1031.625,786.8638,1035.625,782.8638,1031.625" style="stroke:#E7E7E7;stroke-width:1;"/><text fill="#FFFFFF" font-family="sans-serif" font-size="13" font-weight="bold" lengthAdjust="spacing" textLength="18.0908" x="782.8638" y="1005.9927">37</text><text fill="#FFFFFF" font-family="sans-serif" font-size="13" lengthAdjust="spacing" textLength="234.0127" x="804.9546" y="998.4263">Schreibe Hash(Token) in Blockchain</text><text fill="#FFFFFF" font-family="sans-serif" font-size="13" lengthAdjust="spacing" textLength="118.4854" x="804.9546" y="1013.5591">(Typ: VOTE_CAST)</text></g><g class="message" data-participant-1="BC" data-participant-2="FEV"><polygon fill="#E7E7E7" points="351.269,1071.8906,341.269,1075.8906,351.269,1079.8906,347.269,1075.8906" style="stroke:#E7E7E7;stroke-width:1;"/><line style="stroke:#E7E7E7;stroke-width:1;stroke-dasharray:2.0,2.0;" x1="345.269" x2="764.8638" y1="1075.8906" y2="1075.8906"/><text fill="#FFFFFF" font-family="sans-serif" font-size="13" font-weight="bold" lengthAdjust="spacing" textLength="18.0908" x="357.269" y="1063.2583">38</text><text fill="#FFFFFF" font-family="sans-serif" font-size="13" lengthAdjust="spacing" textLength="210.3931" x="379.3599" y="1055.6919">Best&#228;tige g&#252;ltige Stimmabgabe/</text><text fill="#FFFFFF" font-family="sans-serif" font-size="13" lengthAdjust="spacing" textLength="86.8042" x="379.3599" y="1070.8247">(Transaktion)</text></g><line style="stroke:#FFFFFF;stroke-width:1;stroke-dasharray:2.0,2.0;" x1="286.7144" x2="1060.9673" y1="1084.8906" y2="1084.8906"/><text fill="#FFFFFF" font-family="sans-serif" font-size="11" font-weight="bold" lengthAdjust="spacing" textLength="280.167" x="291.7144" y="1095.1011">[Ung&#252;ltiger oder bereits verwendeter Token]</text><g class="message" data-participant-1="BC" data-participant-2="FEV"><polygon fill="#E7E7E7" points="351.269,1115.8281,341.269,1119.8281,351.269,1123.8281,347.269,1119.8281" style="stroke:#E7E7E7;stroke-width:1;"/><line style="stroke:#E7E7E7;stroke-width:1;stroke-dasharray:2.0,2.0;" x1="345.269" x2="764.8638" y1="1119.8281" y2="1119.8281"/><text fill="#FFFFFF" font-family="sans-serif" font-size="13" font-weight="bold" lengthAdjust="spacing" textLength="18.0908" x="357.269" y="1114.7622">39</text><text fill="#FFFFFF" font-family="sans-serif" font-size="13" lengthAdjust="spacing" textLength="283.6133" x="379.3599" y="1114.7622">Fehler: Ung&#252;ltiger oder verbrauchter Token</text></g><rect fill="#111111" height="3" style="stroke:#111111;stroke-width:1;" width="1322.2646" x="0" y="1155.3945"/><line style="stroke:#FFFFFF;stroke-width:1;" x1="0" x2="1322.2646" y1="1155.3945" y2="1155.3945"/><line style="stroke:#FFFFFF;stroke-width:1;" x1="0" x2="1322.2646" y1="1158.3945" y2="1158.3945"/><rect fill="#111111" height="23.1328" style="stroke:#FFFFFF;stroke-width:2;" width="103.4448" x="609.4099" y="1144.8281"/><text fill="#FFFFFF" font-family="sans-serif" font-size="13" font-weight="bold" lengthAdjust="spacing" textLength="84.9189" x="615.4099" y="1160.895">Ausz&#228;hlung</text><g class="message" data-participant-1="API" data-participant-2="BC"><polygon fill="#E7E7E7" points="786.8638,1195.0938,776.8638,1199.0938,786.8638,1203.0938,782.8638,1199.0938" style="stroke:#E7E7E7;stroke-width:1;"/><line style="stroke:#E7E7E7;stroke-width:1;" x1="780.8638" x2="1088.6841" y1="1199.0938" y2="1199.0938"/><text fill="#FFFFFF" font-family="sans-serif" font-size="13" font-weight="bold" lengthAdjust="spacing" textLength="18.0908" x="792.8638" y="1194.0278">40</text><text fill="#FFFFFF" font-family="sans-serif" font-size="13" lengthAdjust="spacing" textLength="241.4204" x="814.9546" y="1194.0278">Anforderung verschl&#252;sselte Stimmen</text></g><g class="message" data-participant-1="BC" data-participant-2="API"><polygon fill="#E7E7E7" points="1077.6841,1224.2266,1087.6841,1228.2266,1077.6841,1232.2266,1081.6841,1228.2266" style="stroke:#E7E7E7;stroke-width:1;"/><line style="stroke:#E7E7E7;stroke-width:1;stroke-dasharray:2.0,2.0;" x1="775.8638" x2="1083.6841" y1="1228.2266" y2="1228.2266"/><text fill="#FFFFFF" font-family="sans-serif" font-size="13" font-weight="bold" lengthAdjust="spacing" textLength="18.0908" x="782.8638" y="1223.1606">41</text><text fill="#FFFFFF" font-family="sans-serif" font-size="13" lengthAdjust="spacing" textLength="214.4111" x="804.9546" y="1223.1606">Senden verschl&#252;sselter Stimmen</text></g><g class="message" data-participant-1="API" data-participant-2="API"><line style="stroke:#E7E7E7;stroke-width:1;" x1="1089.6841" x2="1131.6841" y1="1257.3594" y2="1257.3594"/><line style="stroke:#E7E7E7;stroke-width:1;" x1="1131.6841" x2="1131.6841" y1="1257.3594" y2="1270.3594"/><line style="stroke:#E7E7E7;stroke-width:1;" x1="1090.6841" x2="1131.6841" y1="1270.3594" y2="1270.3594"/><polygon fill="#E7E7E7" points="1100.6841,1266.3594,1090.6841,1270.3594,1100.6841,1274.3594,1096.6841,1270.3594" style="stroke:#E7E7E7;stroke-width:1;"/><text fill="#FFFFFF" font-family="sans-serif" font-size="13" font-weight="bold" lengthAdjust="spacing" textLength="18.0908" x="1096.6841" y="1252.2935">42</text><text fill="#FFFFFF" font-family="sans-serif" font-size="13" lengthAdjust="spacing" textLength="168.105" x="1118.7749" y="1252.2935">Entschl&#252;sselung Stimmen</text></g><g class="message" data-participant-1="API" data-participant-2="API"><line style="stroke:#E7E7E7;stroke-width:1;" x1="1089.6841" x2="1131.6841" y1="1299.4922" y2="1299.4922"/><line style="stroke:#E7E7E7;stroke-width:1;" x1="1131.6841" x2="1131.6841" y1="1299.4922" y2="1312.4922"/><line style="stroke:#E7E7E7;stroke-width:1;" x1="1090.6841" x2="1131.6841" y1="1312.4922" y2="1312.4922"/><polygon fill="#E7E7E7" points="1100.6841,1308.4922,1090.6841,1312.4922,1100.6841,1316.4922,1096.6841,1312.4922" style="stroke:#E7E7E7;stroke-width:1;"/><text fill="#FFFFFF" font-family="sans-serif" font-size="13" font-weight="bold" lengthAdjust="spacing" textLength="18.0908" x="1096.6841" y="1294.4263">43</text><text fill="#FFFFFF" font-family="sans-serif" font-size="13" lengthAdjust="spacing" textLength="137.9346" x="1118.7749" y="1294.4263">Ausz&#228;hlung Stimmen</text></g><g class="message" data-participant-1="API" data-participant-2="BC"><polygon fill="#E7E7E7" points="786.8638,1337.625,776.8638,1341.625,786.8638,1345.625,782.8638,1341.625" style="stroke:#E7E7E7;stroke-width:1;"/><line style="stroke:#E7E7E7;stroke-width:1;" x1="780.8638" x2="1088.6841" y1="1341.625" y2="1341.625"/><text fill="#FFFFFF" font-family="sans-serif" font-size="13" font-weight="bold" lengthAdjust="spacing" textLength="18.0908" x="792.8638" y="1336.5591">44</text><text fill="#FFFFFF" font-family="sans-serif" font-size="13" lengthAdjust="spacing" textLength="146.7388" x="814.9546" y="1336.5591">&#220;bermittlung Ergebnis</text></g><rect fill="#111111" height="3" style="stroke:#111111;stroke-width:1;" width="1322.2646" x="0" y="1370.1914"/><line style="stroke:#FFFFFF;stroke-width:1;" x1="0" x2="1322.2646" y1="1370.1914" y2="1370.1914"/><line style="stroke:#FFFFFF;stroke-width:1;" x1="0" x2="1322.2646" y1="1373.1914" y2="1373.1914"/><rect fill="#111111" height="23.1328" style="stroke:#FFFFFF;stroke-width:2;" width="82.6943" x="619.7852" y="1359.625"/><text fill="#FFFFFF" font-family="sans-serif" font-size="13" font-weight="bold" lengthAdjust="spacing" textLength="64.1685" x="625.7852" y="1375.6919">Ergebnis</text><g class="message" data-participant-1="FER" data-participant-2="BC"><polygon fill="#E7E7E7" points="753.8638,1409.8906,763.8638,1413.8906,753.8638,1417.8906,757.8638,1413.8906" style="stroke:#E7E7E7;stroke-width:1;"/><line style="stroke:#E7E7E7;stroke-width:1;" x1="129.1084" x2="759.8638" y1="1413.8906" y2="1413.8906"/><text fill="#FFFFFF" font-family="sans-serif" font-size="13" font-weight="bold" lengthAdjust="spacing" textLength="18.0908" x="136.1084" y="1408.8247">50</text><text fill="#FFFFFF" font-family="sans-serif" font-size="13" lengthAdjust="spacing" textLength="96.1226" x="158.1992" y="1408.8247">Abruf Ergebnis</text></g><g class="message" data-participant-1="BC" data-participant-2="FER"><polygon fill="#E7E7E7" points="135.1084,1439.0234,125.1084,1443.0234,135.1084,1447.0234,131.1084,1443.0234" style="stroke:#E7E7E7;stroke-width:1;"/><line style="stroke:#E7E7E7;stroke-width:1;stroke-dasharray:2.0,2.0;" x1="129.1084" x2="769.8638" y1="1443.0234" y2="1443.0234"/><text fill="#FFFFFF" font-family="sans-serif" font-size="13" font-weight="bold" lengthAdjust="spacing" textLength="18.0908" x="141.1084" y="1437.9575">51</text><text fill="#FFFFFF" font-family="sans-serif" font-size="13" lengthAdjust="spacing" textLength="109.7954" x="163.1992" y="1437.9575">Senden Ergebnis</text></g><!--SRC=[ZLHDRzf04BtxLunoQ89Q4lfrGQ8IK49HfIQrARaWLMjxC2lC6ksk4pK_fASUypDouuzrrlRQQo1LBo7UVMzcTjwRORdEHBuDKNeiqfc4k_tJEgMl7PEQHtp7X8QpQva9ZI9U2XzLdcfr1ap1zSH_2RR8D1T9XLgqKJucN6d9KUOYKGhbFO_mQYdks3fbMtqrl9qLH3zeyqPf5csYDUEY6zIaO4kGCQMLL7v16utRD1DsasstN2cU2QBO-FHRlVcMyCWzyyNlcKOJOp20Lg7mbOcOntGhO33mMDqtUDlpoW3G_MI2zc7AGmqcRqfymhEm2MsoWlbRes_b_ddbuflxqRZlLA6T6WZ3qkO0alrpgdb2nq0iwDhWGHv5g1ITOwgmmGiUhLzcNMFX0IA9s8knLVnnPohB7BJbNSyxhudMLL23APKVG1-6kLwZq7p57oaSmiNZvUWISFQvOvve-UG5KoCnBA_e6XPTesn8h-495LF0J6SEBrflRKMQea1Pv9vdcwAp5a08MsuVzdyet9PhdLR0gjJlVdUSnTXf1QPcKk-ZjKGU8dnXQdrHS3h01JH6NegB-QyTQJoPpeAvFvpFRhwLWGgrZjvmhDfXeOvsfNe0ZdxKndFdqwf2YWQQRxSiJ1YLszRnVGyyHpGQPzECtwkLA0kCKaxwGIvYI32qlK4k6i-R5T1IlWmoDV0YCPeHWUAulbsWLD4wtJ_JYaXnAImopJOiRS1bf-cbDlDhk7UPsgRmIejNZD8-Ro0BIrhNQ0JIcJNwvzyKe2IPCDaUJ7eD3xcCiHhC4b4f1QygvMfiFN7s0JiaWF5WNMpx_h-jjBYPJtwEXy6yuqvrsT8HAhr_eeBGLeQky5ScXcH2iOscLTcnI-E7i6W9v7G9nfDSg-OvTDRCJYjbwSR-SGpYXfBbr1M7VB1kZ6-CEOUvUZJcCID0vdJT-Q7dlR1RpUuSYbL6cXHRwhGhX7UmByrxn25OEcXtTK-4Rc0coMcOM_yHmjJPx1O3cKWQ9C7LgSrhxmw6z6FFdJQ_60-_xa8eyrKJrL78hnzyAgS9v7oEndy1]--></g></svg>