<svg xmlns="http://www.w3.org/2000/svg" xmlns:xlink="http://www.w3.org/1999/xlink" contentStyleType="text/css" data-diagram-type="SEQUENCE" height="1238px" preserveAspectRatio="none" style="width:1244px;height:1238px;background:#FFFFFF;" version="1.1" viewBox="0 0 1244 1238" width="1244px" zoomAndPan="magnify"><defs/><g><rect fill="none" height="103.5313" style="stroke:#000000;stroke-width:1.5;" width="539.1641" x="281.2046" y="429.625"/><rect fill="none" height="320.1328" style="stroke:#000000;stroke-width:1.5;" width="767.3413" x="271.2046" y="547.1563"/><rect fill="none" height="204.7344" style="stroke:#000000;stroke-width:1.5;" width="728.6245" x="281.2046" y="655.5547"/><g><title>W.hler</title><rect fill="#000000" fill-opacity="0.00000" height="1076.0547" width="8" x="28.7769" y="81.2969"/><line style="stroke:#181818;stroke-width:0.5;stroke-dasharray:5.0,5.0;" x1="32" x2="32" y1="81.2969" y2="1157.3516"/></g><g><title>Frontend</title><rect fill="#000000" fill-opacity="0.00000" height="1076.0547" width="8" x="105.1084" y="81.2969"/><line style="stroke:#181818;stroke-width:0.5;stroke-dasharray:5.0,5.0;" x1="108.5537" x2="108.5537" y1="81.2969" y2="1157.3516"/></g><g><title>Frontend</title><rect fill="#000000" fill-opacity="0.00000" height="1076.0547" width="8" x="238.6499" y="81.2969"/><line style="stroke:#181818;stroke-width:0.5;stroke-dasharray:5.0,5.0;" x1="242.0952" x2="242.0952" y1="81.2969" y2="1157.3516"/></g><g><title>Frontend</title><rect fill="#000000" fill-opacity="0.00000" height="1076.0547" width="8" x="325.7593" y="81.2969"/><line style="stroke:#181818;stroke-width:0.5;stroke-dasharray:5.0,5.0;" x1="329.2046" x2="329.2046" y1="81.2969" y2="1157.3516"/></g><g><title>Registrierungsservice.</title><rect fill="#000000" fill-opacity="0.00000" height="1076.0547" width="8" x="459.6675" y="81.2969"/><line style="stroke:#181818;stroke-width:0.5;stroke-dasharray:5.0,5.0;" x1="463.314" x2="463.314" y1="81.2969" y2="1157.3516"/></g><g><title>Blockchain-Service.</title><rect fill="#000000" fill-opacity="0.00000" height="1076.0547" width="8" x="730.7256" y="81.2969"/><line style="stroke:#181818;stroke-width:0.5;stroke-dasharray:5.0,5.0;" x1="734.0825" x2="734.0825" y1="81.2969" y2="1157.3516"/></g><g><title>Wahlkommision.</title><rect fill="#000000" fill-opacity="0.00000" height="1076.0547" width="8" x="1029.5459" y="81.2969"/><line style="stroke:#181818;stroke-width:0.5;stroke-dasharray:5.0,5.0;" x1="1033.3652" x2="1033.3652" y1="81.2969" y2="1157.3516"/></g><g class="participant participant-head" data-participant="W.hler"><text fill="#000000" font-family="sans-serif" font-size="14" lengthAdjust="spacing" textLength="49.5537" x="5" y="77.9951">W&#228;hler</text><ellipse cx="32.7769" cy="13.5" fill="#E2E2F0" rx="8" ry="8" style="stroke:#181818;stroke-width:0.5;"/><path d="M32.7769,21.5 L32.7769,48.5 M19.7769,29.5 L45.7769,29.5 M32.7769,48.5 L19.7769,63.5 M32.7769,48.5 L45.7769,63.5" fill="none" style="stroke:#181818;stroke-width:0.5;"/></g><g class="participant participant-tail" data-participant="W.hler"><text fill="#000000" font-family="sans-serif" font-size="14" lengthAdjust="spacing" textLength="49.5537" x="5" y="1169.3467">W&#228;hler</text><ellipse cx="32.7769" cy="1181.1484" fill="#E2E2F0" rx="8" ry="8" style="stroke:#181818;stroke-width:0.5;"/><path d="M32.7769,1189.1484 L32.7769,1216.1484 M19.7769,1197.1484 L45.7769,1197.1484 M32.7769,1216.1484 L19.7769,1231.1484 M32.7769,1216.1484 L45.7769,1231.1484" fill="none" style="stroke:#181818;stroke-width:0.5;"/></g><g class="participant participant-head" data-participant="FEA"><rect fill="#E2E2F0" height="46.5938" rx="2.5" ry="2.5" style="stroke:#181818;stroke-width:0.5;" width="77.1094" x="70.5537" y="33.7031"/><text fill="#000000" font-family="sans-serif" font-size="14" lengthAdjust="spacing" textLength="63.1094" x="77.5537" y="53.6982">Frontend</text><text fill="#000000" font-family="sans-serif" font-size="14" lengthAdjust="spacing" textLength="58.2695" x="79.9736" y="69.9951">Register</text></g><g class="participant participant-tail" data-participant="FEA"><rect fill="#E2E2F0" height="46.5938" rx="2.5" ry="2.5" style="stroke:#181818;stroke-width:0.5;" width="77.1094" x="70.5537" y="1156.3516"/><text fill="#000000" font-family="sans-serif" font-size="14" lengthAdjust="spacing" textLength="63.1094" x="77.5537" y="1176.3467">Frontend</text><text fill="#000000" font-family="sans-serif" font-size="14" lengthAdjust="spacing" textLength="58.2695" x="79.9736" y="1192.6436">Register</text></g><g class="participant participant-head" data-participant="FER"><rect fill="#E2E2F0" height="46.5938" rx="2.5" ry="2.5" style="stroke:#181818;stroke-width:0.5;" width="77.1094" x="204.0952" y="33.7031"/><text fill="#000000" font-family="sans-serif" font-size="14" lengthAdjust="spacing" textLength="63.1094" x="211.0952" y="53.6982">Frontend</text><text fill="#000000" font-family="sans-serif" font-size="14" lengthAdjust="spacing" textLength="51.1807" x="217.0596" y="69.9951">Results</text></g><g class="participant participant-tail" data-participant="FER"><rect fill="#E2E2F0" height="46.5938" rx="2.5" ry="2.5" style="stroke:#181818;stroke-width:0.5;" width="77.1094" x="204.0952" y="1156.3516"/><text fill="#000000" font-family="sans-serif" font-size="14" lengthAdjust="spacing" textLength="63.1094" x="211.0952" y="1176.3467">Frontend</text><text fill="#000000" font-family="sans-serif" font-size="14" lengthAdjust="spacing" textLength="51.1807" x="217.0596" y="1192.6436">Results</text></g><g class="participant participant-head" data-participant="FEV"><rect fill="#E2E2F0" height="46.5938" rx="2.5" ry="2.5" style="stroke:#181818;stroke-width:0.5;" width="77.1094" x="291.2046" y="33.7031"/><text fill="#000000" font-family="sans-serif" font-size="14" lengthAdjust="spacing" textLength="63.1094" x="298.2046" y="53.6982">Frontend</text><text fill="#000000" font-family="sans-serif" font-size="14" lengthAdjust="spacing" textLength="45.2813" x="307.1187" y="69.9951">Voting</text></g><g class="participant participant-tail" data-participant="FEV"><rect fill="#E2E2F0" height="46.5938" rx="2.5" ry="2.5" style="stroke:#181818;stroke-width:0.5;" width="77.1094" x="291.2046" y="1156.3516"/><text fill="#000000" font-family="sans-serif" font-size="14" lengthAdjust="spacing" textLength="63.1094" x="298.2046" y="1176.3467">Frontend</text><text fill="#000000" font-family="sans-serif" font-size="14" lengthAdjust="spacing" textLength="45.2813" x="307.1187" y="1192.6436">Voting</text></g><g class="participant participant-head" data-participant="RS"><rect fill="#E2E2F0" height="46.5938" rx="2.5" ry="2.5" style="stroke:#181818;stroke-width:0.5;" width="170.707" x="378.314" y="33.7031"/><text fill="#000000" font-family="sans-serif" font-size="14" lengthAdjust="spacing" textLength="156.707" x="385.314" y="53.6982">Registrierungsservice/</text><text fill="#000000" font-family="sans-serif" font-size="14" lengthAdjust="spacing" textLength="62.8906" x="432.2222" y="69.9951">Wahlamt</text></g><g class="participant participant-tail" data-participant="RS"><rect fill="#E2E2F0" height="46.5938" rx="2.5" ry="2.5" style="stroke:#181818;stroke-width:0.5;" width="170.707" x="378.314" y="1156.3516"/><text fill="#000000" font-family="sans-serif" font-size="14" lengthAdjust="spacing" textLength="156.707" x="385.314" y="1176.3467">Registrierungsservice/</text><text fill="#000000" font-family="sans-serif" font-size="14" lengthAdjust="spacing" textLength="62.8906" x="432.2222" y="1192.6436">Wahlamt</text></g><g class="participant participant-head" data-participant="BC"><rect fill="#E2E2F0" height="46.5938" rx="2.5" ry="2.5" style="stroke:#181818;stroke-width:0.5;" width="151.2861" x="659.0825" y="33.7031"/><text fill="#000000" font-family="sans-serif" font-size="14" lengthAdjust="spacing" textLength="137.2861" x="666.0825" y="53.6982">Blockchain-Service/</text><text fill="#000000" font-family="sans-serif" font-size="14" lengthAdjust="spacing" textLength="102.5732" x="683.439" y="69.9951">SmartContract</text></g><g class="participant participant-tail" data-participant="BC"><rect fill="#E2E2F0" height="46.5938" rx="2.5" ry="2.5" style="stroke:#181818;stroke-width:0.5;" width="151.2861" x="659.0825" y="1156.3516"/><text fill="#000000" font-family="sans-serif" font-size="14" lengthAdjust="spacing" textLength="137.2861" x="666.0825" y="1176.3467">Blockchain-Service/</text><text fill="#000000" font-family="sans-serif" font-size="14" lengthAdjust="spacing" textLength="102.5732" x="683.439" y="1192.6436">SmartContract</text></g><g class="participant participant-head" data-participant="VoteAPI"><rect fill="#E2E2F0" height="46.5938" rx="2.5" ry="2.5" style="stroke:#181818;stroke-width:0.5;" width="130.3613" x="968.3652" y="33.7031"/><text fill="#000000" font-family="sans-serif" font-size="14" lengthAdjust="spacing" textLength="116.3613" x="975.3652" y="53.6982">Wahlkommision/</text><text fill="#000000" font-family="sans-serif" font-size="14" lengthAdjust="spacing" textLength="22.1484" x="1022.4717" y="69.9951">API</text></g><g class="participant participant-tail" data-participant="VoteAPI"><rect fill="#E2E2F0" height="46.5938" rx="2.5" ry="2.5" style="stroke:#181818;stroke-width:0.5;" width="130.3613" x="968.3652" y="1156.3516"/><text fill="#000000" font-family="sans-serif" font-size="14" lengthAdjust="spacing" textLength="116.3613" x="975.3652" y="1176.3467">Wahlkommision/</text><text fill="#000000" font-family="sans-serif" font-size="14" lengthAdjust="spacing" textLength="22.1484" x="1022.4717" y="1192.6436">API</text></g><rect fill="#EEEEEE" height="3" style="stroke:#EEEEEE;stroke-width:1;" width="1237.7417" x="0" y="111.8633"/><line style="stroke:#000000;stroke-width:1;" x1="0" x2="1237.7417" y1="111.8633" y2="111.8633"/><line style="stroke:#000000;stroke-width:1;" x1="0" x2="1237.7417" y1="114.8633" y2="114.8633"/><rect fill="#EEEEEE" height="23.1328" style="stroke:#000000;stroke-width:2;" width="118.9775" x="559.3821" y="101.2969"/><text fill="#000000" font-family="sans-serif" font-size="13" font-weight="bold" lengthAdjust="spacing" textLength="100.4517" x="565.3821" y="117.3638">Registrierung</text><g class="message" data-participant-1="W.hler" data-participant-2="RS"><polygon fill="#181818" points="451.6675,151.5625,461.6675,155.5625,451.6675,159.5625,455.6675,155.5625" style="stroke:#181818;stroke-width:1;"/><line style="stroke:#181818;stroke-width:1;" x1="32.7769" x2="457.6675" y1="155.5625" y2="155.5625"/><text fill="#000000" font-family="sans-serif" font-size="13" font-weight="bold" lengthAdjust="spacing" textLength="9.0454" x="39.7769" y="150.4966">1</text><text fill="#000000" font-family="sans-serif" font-size="13" lengthAdjust="spacing" textLength="159.6372" x="52.8223" y="150.4966">Authentifiziere (z.B. eID)</text></g><g class="message" data-participant-1="RS" data-participant-2="RS"><line style="stroke:#181818;stroke-width:1;" x1="463.6675" x2="505.6675" y1="184.6953" y2="184.6953"/><line style="stroke:#181818;stroke-width:1;" x1="505.6675" x2="505.6675" y1="184.6953" y2="197.6953"/><line style="stroke:#181818;stroke-width:1;" x1="464.6675" x2="505.6675" y1="197.6953" y2="197.6953"/><polygon fill="#181818" points="474.6675,193.6953,464.6675,197.6953,474.6675,201.6953,470.6675,197.6953" style="stroke:#181818;stroke-width:1;"/><text fill="#000000" font-family="sans-serif" font-size="13" font-weight="bold" lengthAdjust="spacing" textLength="9.0454" x="470.6675" y="179.6294">2</text><text fill="#000000" font-family="sans-serif" font-size="13" lengthAdjust="spacing" textLength="157.4727" x="483.7129" y="179.6294">Pr&#252;fe Wahlberechtigung</text></g><g class="message" data-participant-1="RS" data-participant-2="RS"><line style="stroke:#181818;stroke-width:1;" x1="463.6675" x2="505.6675" y1="226.8281" y2="226.8281"/><line style="stroke:#181818;stroke-width:1;" x1="505.6675" x2="505.6675" y1="226.8281" y2="239.8281"/><line style="stroke:#181818;stroke-width:1;" x1="464.6675" x2="505.6675" y1="239.8281" y2="239.8281"/><polygon fill="#181818" points="474.6675,235.8281,464.6675,239.8281,474.6675,243.8281,470.6675,239.8281" style="stroke:#181818;stroke-width:1;"/><text fill="#000000" font-family="sans-serif" font-size="13" font-weight="bold" lengthAdjust="spacing" textLength="9.0454" x="470.6675" y="221.7622">3</text><text fill="#000000" font-family="sans-serif" font-size="13" lengthAdjust="spacing" textLength="108.3989" x="483.7129" y="221.7622">Generiere Token</text></g><g class="message" data-participant-1="RS" data-participant-2="W.hler"><polygon fill="#181818" points="43.7769,264.9609,33.7769,268.9609,43.7769,272.9609,39.7769,268.9609" style="stroke:#181818;stroke-width:1;"/><line style="stroke:#181818;stroke-width:1;" x1="37.7769" x2="462.6675" y1="268.9609" y2="268.9609"/><text fill="#000000" font-family="sans-serif" font-size="13" font-weight="bold" lengthAdjust="spacing" textLength="9.0454" x="49.7769" y="263.895">4</text><text fill="#000000" font-family="sans-serif" font-size="13" lengthAdjust="spacing" textLength="212.6338" x="62.8223" y="263.895">&#220;bermittle Token (z.B. QR-Code)</text></g><g class="message" data-participant-1="RS" data-participant-2="BC"><polygon fill="#181818" points="722.7256,309.2266,732.7256,313.2266,722.7256,317.2266,726.7256,313.2266" style="stroke:#181818;stroke-width:1;"/><line style="stroke:#181818;stroke-width:1;" x1="463.6675" x2="728.7256" y1="313.2266" y2="313.2266"/><text fill="#000000" font-family="sans-serif" font-size="13" font-weight="bold" lengthAdjust="spacing" textLength="9.0454" x="470.6675" y="300.5942">5</text><text fill="#000000" font-family="sans-serif" font-size="13" lengthAdjust="spacing" textLength="234.0127" x="483.7129" y="293.0278">Schreibe Hash(Token) in Blockchain</text><text fill="#000000" font-family="sans-serif" font-size="13" lengthAdjust="spacing" textLength="139.5469" x="483.7129" y="308.1606">(Typ: REGISTRATION)</text></g><rect fill="#EEEEEE" height="3" style="stroke:#EEEEEE;stroke-width:1;" width="1237.7417" x="0" y="341.793"/><line style="stroke:#000000;stroke-width:1;" x1="0" x2="1237.7417" y1="341.793" y2="341.793"/><line style="stroke:#000000;stroke-width:1;" x1="0" x2="1237.7417" y1="344.793" y2="344.793"/><rect fill="#EEEEEE" height="23.1328" style="stroke:#000000;stroke-width:2;" width="119.9297" x="558.906" y="331.2266"/><text fill="#000000" font-family="sans-serif" font-size="13" font-weight="bold" lengthAdjust="spacing" textLength="101.4038" x="564.906" y="347.2935">Stimmabgabe</text><g class="message" data-participant-1="W.hler" data-participant-2="FEV"><polygon fill="#181818" points="317.7593,381.4922,327.7593,385.4922,317.7593,389.4922,321.7593,385.4922" style="stroke:#181818;stroke-width:1;"/><line style="stroke:#181818;stroke-width:1;" x1="32.7769" x2="323.7593" y1="385.4922" y2="385.4922"/><text fill="#000000" font-family="sans-serif" font-size="13" font-weight="bold" lengthAdjust="spacing" textLength="9.0454" x="39.7769" y="380.4263">6</text><text fill="#000000" font-family="sans-serif" font-size="13" lengthAdjust="spacing" textLength="241.4014" x="52.8223" y="380.4263">&#214;ffne Wahlclient und gebe Token ein</text></g><g class="message" data-participant-1="W.hler" data-participant-2="FEV"><polygon fill="#181818" points="317.7593,410.625,327.7593,414.625,317.7593,418.625,321.7593,414.625" style="stroke:#181818;stroke-width:1;"/><line style="stroke:#181818;stroke-width:1;" x1="32.7769" x2="323.7593" y1="414.625" y2="414.625"/><text fill="#000000" font-family="sans-serif" font-size="13" font-weight="bold" lengthAdjust="spacing" textLength="9.0454" x="39.7769" y="409.5591">7</text><text fill="#000000" font-family="sans-serif" font-size="13" lengthAdjust="spacing" textLength="109.0908" x="52.8223" y="409.5591">Gebe Stimme ab</text></g><path d="M281.2046,429.625 L397.9966,429.625 L397.9966,436.7578 L387.9966,446.7578 L281.2046,446.7578 L281.2046,429.625" fill="#EEEEEE" style="stroke:#000000;stroke-width:1.5;"/><rect fill="none" height="103.5313" style="stroke:#000000;stroke-width:1.5;" width="539.1641" x="281.2046" y="429.625"/><text fill="#000000" font-family="sans-serif" font-size="13" font-weight="bold" lengthAdjust="spacing" textLength="71.792" x="296.2046" y="442.6919">VoteForm</text><g class="message" data-participant-1="FEV" data-participant-2="FEV"><line style="stroke:#181818;stroke-width:1;" x1="329.7593" x2="371.7593" y1="483.0234" y2="483.0234"/><line style="stroke:#181818;stroke-width:1;" x1="371.7593" x2="371.7593" y1="483.0234" y2="496.0234"/><line style="stroke:#181818;stroke-width:1;" x1="330.7593" x2="371.7593" y1="496.0234" y2="496.0234"/><polygon fill="#181818" points="340.7593,492.0234,330.7593,496.0234,340.7593,500.0234,336.7593,496.0234" style="stroke:#181818;stroke-width:1;"/><text fill="#000000" font-family="sans-serif" font-size="13" font-weight="bold" lengthAdjust="spacing" textLength="9.0454" x="336.7593" y="470.3911">8</text><text fill="#000000" font-family="sans-serif" font-size="13" lengthAdjust="spacing" textLength="89.4004" x="349.8047" y="462.8247">Verschl&#252;ssele</text><text fill="#000000" font-family="sans-serif" font-size="13" lengthAdjust="spacing" textLength="85.0903" x="353.937" y="477.9575">Stimme lokal</text></g><g class="message" data-participant-1="FEV" data-participant-2="BC"><polygon fill="#181818" points="722.7256,521.1563,732.7256,525.1563,722.7256,529.1563,726.7256,525.1563" style="stroke:#181818;stroke-width:1;"/><line style="stroke:#181818;stroke-width:1;" x1="329.7593" x2="728.7256" y1="525.1563" y2="525.1563"/><text fill="#000000" font-family="sans-serif" font-size="13" font-weight="bold" lengthAdjust="spacing" textLength="9.0454" x="336.7593" y="520.0903">9</text><text fill="#000000" font-family="sans-serif" font-size="13" lengthAdjust="spacing" textLength="251.4053" x="349.8047" y="520.0903">Sende Token + verschl&#252;sselte Stimme</text></g><path d="M271.2046,547.1563 L455.0278,547.1563 L455.0278,554.2891 L445.0278,564.2891 L271.2046,564.2891 L271.2046,547.1563" fill="#EEEEEE" style="stroke:#000000;stroke-width:1.5;"/><rect fill="none" height="320.1328" style="stroke:#000000;stroke-width:1.5;" width="767.3413" x="271.2046" y="547.1563"/><text fill="#000000" font-family="sans-serif" font-size="13" font-weight="bold" lengthAdjust="spacing" textLength="138.8232" x="286.2046" y="560.2231">castEncryptedVote</text><g class="message" data-participant-1="BC" data-participant-2="BC"><line style="stroke:#181818;stroke-width:1;" x1="734.7256" x2="776.7256" y1="585.4219" y2="585.4219"/><line style="stroke:#181818;stroke-width:1;" x1="776.7256" x2="776.7256" y1="585.4219" y2="598.4219"/><line style="stroke:#181818;stroke-width:1;" x1="735.7256" x2="776.7256" y1="598.4219" y2="598.4219"/><polygon fill="#181818" points="745.7256,594.4219,735.7256,598.4219,745.7256,602.4219,741.7256,598.4219" style="stroke:#181818;stroke-width:1;"/><text fill="#000000" font-family="sans-serif" font-size="13" font-weight="bold" lengthAdjust="spacing" textLength="18.0908" x="741.7256" y="580.356">10</text><text fill="#000000" font-family="sans-serif" font-size="13" lengthAdjust="spacing" textLength="227.9253" x="763.8164" y="580.356">Pr&#252;fe, ob Token-Hash registriert ist</text></g><g class="message" data-participant-1="BC" data-participant-2="BC"><line style="stroke:#181818;stroke-width:1;" x1="734.7256" x2="776.7256" y1="627.5547" y2="627.5547"/><line style="stroke:#181818;stroke-width:1;" x1="776.7256" x2="776.7256" y1="627.5547" y2="640.5547"/><line style="stroke:#181818;stroke-width:1;" x1="735.7256" x2="776.7256" y1="640.5547" y2="640.5547"/><polygon fill="#181818" points="745.7256,636.5547,735.7256,640.5547,745.7256,644.5547,741.7256,640.5547" style="stroke:#181818;stroke-width:1;"/><text fill="#000000" font-family="sans-serif" font-size="13" font-weight="bold" lengthAdjust="spacing" textLength="18.0908" x="741.7256" y="622.4888">11</text><text fill="#000000" font-family="sans-serif" font-size="13" lengthAdjust="spacing" textLength="262.7295" x="763.8164" y="622.4888">Pr&#252;fe, ob Token schon verwendet wurde</text></g><path d="M281.2046,655.5547 L345.6475,655.5547 L345.6475,662.6875 L335.6475,672.6875 L281.2046,672.6875 L281.2046,655.5547" fill="#EEEEEE" style="stroke:#000000;stroke-width:1.5;"/><rect fill="none" height="204.7344" style="stroke:#000000;stroke-width:1.5;" width="728.6245" x="281.2046" y="655.5547"/><text fill="#000000" font-family="sans-serif" font-size="13" font-weight="bold" lengthAdjust="spacing" textLength="19.4429" x="296.2046" y="668.6216">alt</text><text fill="#000000" font-family="sans-serif" font-size="11" font-weight="bold" lengthAdjust="spacing" textLength="206.3252" x="360.6475" y="667.7651">[Token g&#252;ltig &amp; nicht verwendet]</text><g class="message" data-participant-1="BC" data-participant-2="BC"><line style="stroke:#181818;stroke-width:1;" x1="734.7256" x2="776.7256" y1="693.8203" y2="693.8203"/><line style="stroke:#181818;stroke-width:1;" x1="776.7256" x2="776.7256" y1="693.8203" y2="706.8203"/><line style="stroke:#181818;stroke-width:1;" x1="735.7256" x2="776.7256" y1="706.8203" y2="706.8203"/><polygon fill="#181818" points="745.7256,702.8203,735.7256,706.8203,745.7256,710.8203,741.7256,706.8203" style="stroke:#181818;stroke-width:1;"/><text fill="#000000" font-family="sans-serif" font-size="13" font-weight="bold" lengthAdjust="spacing" textLength="18.0908" x="741.7256" y="688.7544">12</text><text fill="#000000" font-family="sans-serif" font-size="13" lengthAdjust="spacing" textLength="119.2598" x="763.8164" y="688.7544">Speichere Stimme</text></g><g class="message" data-participant-1="BC" data-participant-2="BC"><line style="stroke:#181818;stroke-width:1;" x1="734.7256" x2="776.7256" y1="751.0859" y2="751.0859"/><line style="stroke:#181818;stroke-width:1;" x1="776.7256" x2="776.7256" y1="751.0859" y2="764.0859"/><line style="stroke:#181818;stroke-width:1;" x1="735.7256" x2="776.7256" y1="764.0859" y2="764.0859"/><polygon fill="#181818" points="745.7256,760.0859,735.7256,764.0859,745.7256,768.0859,741.7256,764.0859" style="stroke:#181818;stroke-width:1;"/><text fill="#000000" font-family="sans-serif" font-size="13" font-weight="bold" lengthAdjust="spacing" textLength="18.0908" x="741.7256" y="738.4536">13</text><text fill="#000000" font-family="sans-serif" font-size="13" lengthAdjust="spacing" textLength="234.0127" x="763.8164" y="730.8872">Schreibe Hash(Token) in Blockchain</text><text fill="#000000" font-family="sans-serif" font-size="13" lengthAdjust="spacing" textLength="118.4854" x="763.8164" y="746.02">(Typ: VOTE_CAST)</text></g><g class="message" data-participant-1="BC" data-participant-2="FEV"><polygon fill="#181818" points="340.7593,804.3516,330.7593,808.3516,340.7593,812.3516,336.7593,808.3516" style="stroke:#181818;stroke-width:1;"/><line style="stroke:#181818;stroke-width:1;" x1="334.7593" x2="733.7256" y1="808.3516" y2="808.3516"/><text fill="#000000" font-family="sans-serif" font-size="13" font-weight="bold" lengthAdjust="spacing" textLength="18.0908" x="346.7593" y="795.7192">14</text><text fill="#000000" font-family="sans-serif" font-size="13" lengthAdjust="spacing" textLength="210.3931" x="368.8501" y="788.1528">Best&#228;tige g&#252;ltige Stimmabgabe/</text><text fill="#000000" font-family="sans-serif" font-size="13" lengthAdjust="spacing" textLength="86.8042" x="368.8501" y="803.2856">(Transaktion)</text></g><line style="stroke:#000000;stroke-width:1;stroke-dasharray:2.0,2.0;" x1="281.2046" x2="1009.8291" y1="817.3516" y2="817.3516"/><text fill="#000000" font-family="sans-serif" font-size="11" font-weight="bold" lengthAdjust="spacing" textLength="280.167" x="286.2046" y="827.562">[Ung&#252;ltiger oder bereits verwendeter Token]</text><g class="message" data-participant-1="BC" data-participant-2="FEV"><polygon fill="#181818" points="340.7593,848.2891,330.7593,852.2891,340.7593,856.2891,336.7593,852.2891" style="stroke:#181818;stroke-width:1;"/><line style="stroke:#181818;stroke-width:1;" x1="334.7593" x2="733.7256" y1="852.2891" y2="852.2891"/><text fill="#000000" font-family="sans-serif" font-size="13" font-weight="bold" lengthAdjust="spacing" textLength="18.0908" x="346.7593" y="847.2231">15</text><text fill="#000000" font-family="sans-serif" font-size="13" lengthAdjust="spacing" textLength="283.6133" x="368.8501" y="847.2231">Fehler: Ung&#252;ltiger oder verbrauchter Token</text></g><rect fill="#EEEEEE" height="3" style="stroke:#EEEEEE;stroke-width:1;" width="1237.7417" x="0" y="894.8555"/><line style="stroke:#000000;stroke-width:1;" x1="0" x2="1237.7417" y1="894.8555" y2="894.8555"/><line style="stroke:#000000;stroke-width:1;" x1="0" x2="1237.7417" y1="897.8555" y2="897.8555"/><rect fill="#EEEEEE" height="23.1328" style="stroke:#000000;stroke-width:2;" width="103.4448" x="567.1484" y="884.2891"/><text fill="#000000" font-family="sans-serif" font-size="13" font-weight="bold" lengthAdjust="spacing" textLength="84.9189" x="573.1484" y="900.356">Ausz&#228;hlung</text><g class="message" data-participant-1="VoteAPI" data-participant-2="BC"><polygon fill="#181818" points="745.7256,934.5547,735.7256,938.5547,745.7256,942.5547,741.7256,938.5547" style="stroke:#181818;stroke-width:1;"/><line style="stroke:#181818;stroke-width:1;" x1="739.7256" x2="1032.5459" y1="938.5547" y2="938.5547"/><text fill="#000000" font-family="sans-serif" font-size="13" font-weight="bold" lengthAdjust="spacing" textLength="18.0908" x="751.7256" y="933.4888">16</text><text fill="#000000" font-family="sans-serif" font-size="13" lengthAdjust="spacing" textLength="241.4204" x="773.8164" y="933.4888">Anforderung verschl&#252;sselte Stimmen</text></g><g class="message" data-participant-1="BC" data-participant-2="VoteAPI"><polygon fill="#181818" points="1021.5459,963.6875,1031.5459,967.6875,1021.5459,971.6875,1025.5459,967.6875" style="stroke:#181818;stroke-width:1;"/><line style="stroke:#181818;stroke-width:1;" x1="734.7256" x2="1027.5459" y1="967.6875" y2="967.6875"/><text fill="#000000" font-family="sans-serif" font-size="13" font-weight="bold" lengthAdjust="spacing" textLength="18.0908" x="741.7256" y="962.6216">17</text><text fill="#000000" font-family="sans-serif" font-size="13" lengthAdjust="spacing" textLength="214.4111" x="763.8164" y="962.6216">Senden verschl&#252;sselter Stimmen</text></g><g class="message" data-participant-1="VoteAPI" data-participant-2="VoteAPI"><line style="stroke:#181818;stroke-width:1;" x1="1033.5459" x2="1075.5459" y1="996.8203" y2="996.8203"/><line style="stroke:#181818;stroke-width:1;" x1="1075.5459" x2="1075.5459" y1="996.8203" y2="1009.8203"/><line style="stroke:#181818;stroke-width:1;" x1="1034.5459" x2="1075.5459" y1="1009.8203" y2="1009.8203"/><polygon fill="#181818" points="1044.5459,1005.8203,1034.5459,1009.8203,1044.5459,1013.8203,1040.5459,1009.8203" style="stroke:#181818;stroke-width:1;"/><text fill="#000000" font-family="sans-serif" font-size="13" font-weight="bold" lengthAdjust="spacing" textLength="18.0908" x="1040.5459" y="991.7544">18</text><text fill="#000000" font-family="sans-serif" font-size="13" lengthAdjust="spacing" textLength="168.105" x="1062.6367" y="991.7544">Entschl&#252;sselung Stimmen</text></g><g class="message" data-participant-1="VoteAPI" data-participant-2="VoteAPI"><line style="stroke:#181818;stroke-width:1;" x1="1033.5459" x2="1075.5459" y1="1038.9531" y2="1038.9531"/><line style="stroke:#181818;stroke-width:1;" x1="1075.5459" x2="1075.5459" y1="1038.9531" y2="1051.9531"/><line style="stroke:#181818;stroke-width:1;" x1="1034.5459" x2="1075.5459" y1="1051.9531" y2="1051.9531"/><polygon fill="#181818" points="1044.5459,1047.9531,1034.5459,1051.9531,1044.5459,1055.9531,1040.5459,1051.9531" style="stroke:#181818;stroke-width:1;"/><text fill="#000000" font-family="sans-serif" font-size="13" font-weight="bold" lengthAdjust="spacing" textLength="18.0908" x="1040.5459" y="1033.8872">19</text><text fill="#000000" font-family="sans-serif" font-size="13" lengthAdjust="spacing" textLength="137.9346" x="1062.6367" y="1033.8872">Ausz&#228;hlung Stimmen</text></g><g class="message" data-participant-1="VoteAPI" data-participant-2="BC"><polygon fill="#181818" points="745.7256,1077.0859,735.7256,1081.0859,745.7256,1085.0859,741.7256,1081.0859" style="stroke:#181818;stroke-width:1;"/><line style="stroke:#181818;stroke-width:1;" x1="739.7256" x2="1032.5459" y1="1081.0859" y2="1081.0859"/><text fill="#000000" font-family="sans-serif" font-size="13" font-weight="bold" lengthAdjust="spacing" textLength="18.0908" x="751.7256" y="1076.02">20</text><text fill="#000000" font-family="sans-serif" font-size="13" lengthAdjust="spacing" textLength="146.7388" x="773.8164" y="1076.02">&#220;bermittlung Ergebnis</text></g><g class="message" data-participant-1="BC" data-participant-2="FER"><polygon fill="#181818" points="253.6499,1106.2188,243.6499,1110.2188,253.6499,1114.2188,249.6499,1110.2188" style="stroke:#181818;stroke-width:1;"/><line style="stroke:#181818;stroke-width:1;" x1="247.6499" x2="733.7256" y1="1110.2188" y2="1110.2188"/><text fill="#000000" font-family="sans-serif" font-size="13" font-weight="bold" lengthAdjust="spacing" textLength="18.0908" x="259.6499" y="1105.1528">21</text><text fill="#000000" font-family="sans-serif" font-size="13" lengthAdjust="spacing" textLength="109.7954" x="281.7407" y="1105.1528">Senden Ergebnis</text></g><g class="message" data-participant-1="W.hler" data-participant-2="FER"><polygon fill="#181818" points="230.6499,1135.3516,240.6499,1139.3516,230.6499,1143.3516,234.6499,1139.3516" style="stroke:#181818;stroke-width:1;"/><line style="stroke:#181818;stroke-width:1;" x1="32.7769" x2="236.6499" y1="1139.3516" y2="1139.3516"/><text fill="#000000" font-family="sans-serif" font-size="13" font-weight="bold" lengthAdjust="spacing" textLength="18.0908" x="39.7769" y="1134.2856">22</text><text fill="#000000" font-family="sans-serif" font-size="13" lengthAdjust="spacing" textLength="163.7822" x="61.8677" y="1134.2856">Abruf Resultate der Wahl</text></g><!--SRC=[ZPJDRjf04CVl-nIZ7AgWbkIEb4f08UNIf3Ob5wHgRGPxXJsBTjU9aWVfgSSyHcwyM6TjBnZoeNA2xEy___cCh9ocgapG29awRU1kzvmN_6ihZLEfsafoS3OrcXpIQaaHPiewD6SWBKmdm_SvMnNEjbZq7hRGJb7MKejZgh4o2ar5cRLexbMAbqkwataXIrUBelXOCofqkabpgQWVxmLnoSYOBGsNMCj6usEP3xdHPQciqiIAuUsivZWzvEz2N5t1KJfmTIL4soheV-KyO033okL8JgtL4rC8vqyNeml0sRUUuFT0tPhTonh1MtBNCSsToZXY5xb6GbE7cEiDKliKx0Qm-ylAKZbNj4HhzJFgZ_KAWzrep6oSvWPLWl1TsloyfdkW20wTMjBv_74xW6XoFOldqN0-k_dHgqkEdIfBcMIIvIS5yxHy8d_MQsfgIGl5jKD5AyWm2NcXejUgQ_zUnqQGYH2PqTMsxlLKcr9uQCykqDWqBtOll005BYde2hsHHK2RGdcXWkrdkE_gNB0Jp0I_L5eteTGyRXsklBdWC25OCwGle9CcOjzt3yn-1Hpmbuy4mEwQV1eFFYy73vLPeP25Qz-ptKl1auTFG8ftu40Au4ydShn51lmoj3MSll_tW1StyydlyJ2UzpencZQFqBhTC-U38J7iJl_IXp2IhDmulf2UmC8Y_AB06k2rC-3tMJbxg8N_rcpmgTyK_KeCNeTWQM9anHtPQ_tCwhdnHWuh- -JNAPnWUw3xPWnfhRdFzOc-lGBKJYqesyMXKzpi-Ox7GJGXTw2zsuTqD-qtmD6uUzCUcXW-8b9MXAP5XqJtRqU75R5BOgerDFzv9HVi- -bFyny0]--></g></svg>